<svg width="21" height="29" viewBox="0 0 21 29" fill="none" xmlns="http://www.w3.org/2000/svg">
<path d="M10.4105 6.14453C8.43452 6.14453 6.82617 7.75288 6.82617 9.72888C6.82617 11.7049 8.43452 13.3132 10.4105 13.3132C12.3865 13.3132 13.9949 11.7049 13.9949 9.72888C13.9949 7.75288 12.3865 6.14453 10.4105 6.14453ZM10.4105 12.2891C8.9988 12.2891 7.85027 11.1406 7.85027 9.72888C7.85027 8.31716 8.9988 7.16863 10.4105 7.16863C11.8222 7.16863 12.9708 8.31716 12.9708 9.72888C12.9708 11.1406 11.8222 12.2891 10.4105 12.2891Z" fill="black"/>
<path d="M17.2632 2.87619C15.4086 1.02154 12.9425 0 10.3198 0C7.69658 0 5.23106 1.02154 3.37642 2.87619C-0.0558572 6.30795 -0.482395 12.7649 2.45268 16.677L10.3198 28.0383L18.1752 16.6928C21.122 12.7649 20.6955 6.30795 17.2632 2.87619ZM17.3446 16.0942L10.3198 26.239L3.28373 16.0784C0.621585 12.5288 1.00306 6.69762 4.10097 3.60022C5.76206 1.93913 7.97053 1.0241 10.3198 1.0241C12.6691 1.0241 14.8776 1.93913 16.5392 3.60022C19.6371 6.69762 20.0186 12.5288 17.3446 16.0942Z" fill="black"/>
</svg>
