<svg width="57" height="56" viewBox="0 0 57 56" fill="none" xmlns="http://www.w3.org/2000/svg">
<g clip-path="url(#clip0)">
<path d="M26.3639 36.0338C26.3627 35.5994 26.0107 35.2474 25.5762 35.2461H16.8326C16.3981 35.2474 16.0462 35.5994 16.0449 36.0338V40.9176C16.0462 41.3521 16.3981 41.7041 16.8326 41.7053H25.5762C26.0107 41.7041 26.3627 41.3521 26.3639 40.9176V36.0338ZM24.7885 40.2087H17.6203V36.8215H24.7885V40.2087Z" fill="#750E6C"/>
<path d="M44.4729 37.7678H44.4022V36.7438C44.4074 36.2544 44.2828 35.7723 44.0412 35.3467C43.7995 34.9212 43.4494 34.5672 43.0264 34.321C42.6034 34.0749 42.1227 33.9453 41.6334 33.9453C41.144 33.9453 40.6633 34.0749 40.2403 34.321C39.8174 34.5673 39.4672 34.9212 39.2256 35.3468C38.9839 35.7724 38.8593 36.2544 38.8645 36.7438C38.8645 37.1789 39.2171 37.5315 39.6522 37.5315C40.0873 37.5315 40.4399 37.1789 40.4399 36.7438C40.4345 36.5315 40.4859 36.3217 40.589 36.136C40.692 35.9504 40.8428 35.7956 41.0257 35.6879C41.2087 35.5802 41.4171 35.5233 41.6294 35.5233C41.8418 35.5233 42.0502 35.5801 42.2332 35.6877C42.4162 35.7955 42.567 35.9502 42.6699 36.1359C42.7729 36.3216 42.8243 36.5315 42.8187 36.7438V37.7678H38.8331C38.3999 37.7678 38.0137 38.1066 38.0137 38.5398V43.1243C38.0137 43.5575 38.3919 43.904 38.8331 43.904H44.4653C44.8997 43.907 45.2551 43.5587 45.2606 43.1242V38.5398C45.2607 38.4371 45.2402 38.3354 45.2005 38.2407C45.1607 38.1459 45.1025 38.0601 45.0291 37.9882C44.9557 37.9163 44.8687 37.8598 44.7732 37.8219C44.6777 37.7841 44.5756 37.7657 44.4729 37.7679V37.7678ZM43.6932 42.3365H39.5971V39.3432H43.6932V42.3365Z" fill="#750E6C"/>
<path d="M45.4263 28.7724V22.6676C45.4253 22.5647 45.4039 22.4629 45.3633 22.3683L42.0078 14.1209C41.7833 13.5642 41.3966 13.0878 40.898 12.7535C40.3994 12.4192 39.8118 12.2424 39.2115 12.2462H18.7386C18.138 12.2414 17.55 12.4177 17.0511 12.7521C16.5523 13.0865 16.1659 13.5636 15.9422 14.1209L12.5709 22.3759C12.5281 22.4675 12.504 22.5666 12.5 22.6676V41.9823C12.5139 43.6574 13.873 45.0097 15.5484 45.015H32.6891C34.6427 47.8508 37.9351 49.7726 41.6611 49.7726C47.6319 49.7726 52.5 44.9124 52.5 38.9339C52.4921 34.2864 49.5225 30.3084 45.4263 28.7724ZM40.5425 14.6957L43.4651 21.8562H33.7369L32.4922 13.8215H39.2034C39.4886 13.8159 39.7689 13.8963 40.0077 14.0522C40.2466 14.2081 40.433 14.4324 40.5425 14.6957ZM25.4185 23.4316H32.2716V26.9921L25.4185 29.6859V23.4316ZM25.5524 21.8562L26.86 13.8215H30.8931L32.1377 21.8562H25.5524ZM17.3996 14.6957C17.5092 14.4324 17.6955 14.2081 17.9344 14.0522C18.1732 13.8963 18.4535 13.8159 18.7387 13.8215H25.269L23.9612 21.8562H14.485L17.3996 14.6957ZM15.5484 43.4395C14.7432 43.4343 14.0893 42.7873 14.0754 41.9822V23.4316H23.843V30.8438C23.8427 30.9729 23.8741 31.1 23.9345 31.214C23.995 31.328 24.0825 31.4254 24.1895 31.4976C24.3209 31.5832 24.4739 31.6296 24.6308 31.6315C24.7306 31.6324 24.8296 31.6137 24.9222 31.5764L33.3507 28.268C33.4973 28.2096 33.623 28.1086 33.7114 27.978C33.7999 27.8474 33.8471 27.6932 33.847 27.5354V23.4316H43.8509V28.3154C43.1306 28.166 42.3967 28.092 41.6611 28.0949C35.6901 28.0949 30.8223 32.9629 30.8223 38.9339C30.8245 40.4855 31.1574 42.0188 31.7989 43.4315H15.5484V43.4395ZM41.6534 48.1895C36.5415 48.1895 32.3978 44.0453 32.3978 38.9339C32.3978 33.8221 36.5415 29.6782 41.6534 29.6782C46.7648 29.6782 50.909 33.8221 50.909 38.9339C50.9166 44.038 46.7574 48.1895 41.6534 48.1895Z" fill="#750E6C"/>
</g>
<defs>
<clipPath id="clip0">
<rect width="40" height="40" fill="white" transform="translate(12.5 11)"/>
</clipPath>
</defs>
</svg>
