<svg width="26" height="27" viewBox="0 0 26 27" fill="none" xmlns="http://www.w3.org/2000/svg">
<path d="M25.9839 6.51665C25.9803 6.50346 25.9736 6.49182 25.9688 6.47909C25.9607 6.45549 25.9506 6.43267 25.9386 6.41077C25.8977 6.35291 25.8481 6.30175 25.7916 6.25899C25.7857 6.25533 25.779 6.25394 25.7731 6.25054C25.7674 6.24739 25.7631 6.24255 25.7573 6.23967L13.4467 0.0844564C13.3229 0.0226291 13.1773 0.0226291 13.0535 0.0844564L0.742981 6.23972C0.737056 6.24265 0.73278 6.24755 0.727112 6.25069C0.721084 6.25399 0.714437 6.25543 0.708667 6.25904C0.696301 6.268 0.684451 6.27764 0.673116 6.28784C0.658999 6.29794 0.645552 6.30886 0.632774 6.32056C0.617317 6.33658 0.603097 6.35374 0.590268 6.37192C0.580066 6.38434 0.570483 6.39732 0.561673 6.41077C0.549771 6.43251 0.539724 6.45524 0.531686 6.47868C0.525916 6.4911 0.520815 6.50382 0.516333 6.51675C0.505719 6.55457 0.500206 6.59368 0.5 6.63299V19.8228C0.499948 19.9893 0.594029 20.1416 0.743033 20.2161L13.0535 26.3713C13.06 26.3746 13.0674 26.3733 13.0741 26.3762C13.1849 26.4315 13.3153 26.4315 13.4261 26.3762C13.4328 26.3733 13.4402 26.3746 13.4467 26.3713L25.7572 20.2161C25.9062 20.1416 26.0003 19.9893 26.0003 19.8228V6.63299C26.0001 6.59363 25.9946 6.55452 25.9839 6.51665ZM13.2501 0.969359L24.5774 6.63299L21.164 8.33968L9.83673 2.67605L13.2501 0.969359ZM8.85348 3.16768L20.1807 8.83131L19.4053 9.21902L8.07811 3.55538L8.85348 3.16768ZM20.7243 9.54273V10.3181L18.0863 11.6371V10.8617L20.7243 9.54273ZM7.09485 4.04696L18.4221 9.71059L17.6467 10.0983L6.31944 4.43467L7.09485 4.04696ZM12.8104 25.2666L1.37929 19.551V7.34441L12.8105 13.06V25.2666H12.8104ZM13.2501 12.2966L1.92285 6.63299L5.33623 4.9263L16.6635 10.5899L13.2501 12.2966ZM25.1209 19.551L13.6898 25.2666V13.06L17.2071 11.3014V12.3486C17.2071 12.501 17.286 12.6425 17.4156 12.7226C17.5452 12.8026 17.7071 12.81 17.8434 12.7419L21.3607 10.9833C21.5096 10.9088 21.6037 10.7565 21.6037 10.59V9.10314L25.121 7.34452V19.551H25.1209Z" fill="black"/>
<path d="M21.2108 11.8336L17.3002 13.7889C16.703 14.0852 16.326 14.6951 16.3281 15.3618V15.5939C16.3274 15.899 16.4851 16.1826 16.7446 16.3429C17.0041 16.5033 17.3282 16.5175 17.6007 16.3805L21.5113 14.4252C22.1086 14.129 22.4856 13.519 22.4834 12.8523V12.6202C22.4835 12.3154 22.3257 12.0323 22.0664 11.8721C21.8071 11.7118 21.4833 11.6972 21.2108 11.8336ZM21.6041 12.8523C21.6051 13.1856 21.4167 13.4905 21.118 13.6387L17.2075 15.594V15.3619C17.2064 15.0286 17.3949 14.7236 17.6935 14.5755L21.6041 12.6202V12.8523Z" fill="black"/>
</svg>
