<svg width="20" height="23" viewBox="0 0 20 23" fill="none" xmlns="http://www.w3.org/2000/svg">
<path d="M19.2664 22.2415L18.5772 1.56445C18.5656 1.21705 18.2806 0.941406 17.933 0.941406H1.36422C1.0166 0.941406 0.731633 1.21705 0.720032 1.56445L0.029653 22.2754C0.0238522 22.4499 0.0891217 22.6194 0.210551 22.745C0.332024 22.8705 0.499215 22.9414 0.673841 22.9414H18.6233C18.6237 22.9414 18.624 22.9414 18.6242 22.9414C18.9802 22.9414 19.2687 22.6528 19.2687 22.2969C19.2687 22.2782 19.268 22.2598 19.2664 22.2415ZM1.34024 21.6523L1.98765 2.23047H17.3096L17.957 21.6523H1.34024Z" fill="#750E6C"/>
<path d="M13.7902 5.08203C13.4343 5.08203 13.1457 5.37061 13.1457 5.72656C13.1457 7.65517 11.5767 9.22422 9.64805 9.22422C7.71944 9.22422 6.15039 7.65517 6.15039 5.72656C6.15039 5.37061 5.86181 5.08203 5.50586 5.08203C5.14991 5.08203 4.86133 5.37061 4.86133 5.72656C4.86133 8.36596 7.00865 10.5133 9.64805 10.5133C12.2875 10.5133 14.4348 8.36596 14.4348 5.72656C14.4348 5.37061 14.1462 5.08203 13.7902 5.08203Z" fill="#750E6C"/>
</svg>
