<svg width="28" height="21" viewBox="0 0 28 21" fill="none" xmlns="http://www.w3.org/2000/svg">
<path d="M1.44833 20.5C1.63855 20.5002 1.82696 20.4616 2.00271 20.3862C2.17846 20.3108 2.33809 20.2002 2.47244 20.0607L10.6207 11.6213L13.9414 15.0607C14.0759 15.2 14.2356 15.3105 14.4113 15.3859C14.587 15.4613 14.7753 15.5001 14.9655 15.5001C15.1557 15.5001 15.3441 15.4613 15.5198 15.3859C15.6955 15.3105 15.8552 15.2 15.9897 15.0607L25.1029 5.62194L25.1024 9C25.1024 9.39782 25.255 9.77936 25.5266 10.0607C25.7982 10.342 26.1665 10.5 26.5506 10.5C26.9347 10.5 27.3031 10.342 27.5747 10.0607C27.8463 9.77936 27.9989 9.39782 27.9989 9L28 2C28 1.60218 27.8474 1.22064 27.5758 0.93934C27.3042 0.658035 26.9358 0.5 26.5517 0.5H19.7931C19.409 0.5 19.0406 0.658035 18.769 0.93934C18.4974 1.22064 18.3448 1.60218 18.3448 2C18.3448 2.39782 18.4974 2.77936 18.769 3.06066C19.0406 3.34196 19.409 3.5 19.7931 3.5H23.0553L14.9655 11.8787L11.6448 8.43931C11.5103 8.30002 11.3507 8.18952 11.175 8.11413C10.9993 8.03875 10.8109 7.99994 10.6207 7.99994C10.4305 7.99994 10.2422 8.03875 10.0665 8.11413C9.89076 8.18952 9.7311 8.30002 9.59661 8.43931L0.424216 17.9393C0.221661 18.1491 0.083718 18.4164 0.0278317 18.7073C-0.0280546 18.9983 0.000626071 19.2999 0.110247 19.574C0.219867 19.8481 0.405504 20.0824 0.643681 20.2472C0.881858 20.412 1.16188 20.5 1.44833 20.5Z" fill="#FFDC52"/>
</svg>
