<svg width="57" height="56" viewBox="0 0 57 56" fill="none" xmlns="http://www.w3.org/2000/svg">
<path d="M23.7855 28.0467C23.5235 27.74 23.0628 27.7037 22.7561 27.9657C22.4493 28.2272 22.4131 28.6883 22.675 28.9947L26.5312 33.5104C26.7886 33.8118 27.2396 33.853 27.5467 33.6028L36.5276 26.2962C36.8405 26.0421 36.8877 25.5821 36.6331 25.2693C36.3789 24.9568 35.919 24.9092 35.6061 25.1638L27.1785 32.0198L23.7855 28.0467Z" fill="#750E6C"/>
<g clip-path="url(#clip0)">
<path d="M43.7507 18.5331L29.0411 9.14205C28.8954 9.04928 28.7263 9 28.5535 9C28.3808 9 28.2116 9.04928 28.0659 9.14205L13.3473 18.5331C13.2181 18.6133 13.1114 18.725 13.0371 18.8577C12.9629 18.9904 12.9236 19.1398 12.9229 19.2919V27.4367C12.9303 34.1463 16.1835 40.4379 21.6547 44.3225L28.0208 48.8375C28.175 48.9433 28.3576 48.9999 28.5445 48.9999C28.7315 48.9999 28.9141 48.9433 29.0683 48.8375L35.4344 44.3225C40.9052 40.4379 44.1587 34.1463 44.1662 27.4367V19.2918C44.1681 19.1402 44.1309 18.9908 44.0581 18.8579C43.9853 18.725 43.8794 18.6131 43.7507 18.5331ZM42.369 27.4456C42.3627 33.5714 39.3916 39.3149 34.3959 42.8598L28.5533 47.0043L22.711 42.8598C17.7154 39.3149 14.744 33.5713 14.7377 27.4455V19.7973L28.5533 10.9844L42.369 19.7973V27.4456Z" fill="#750E6C"/>
</g>
<defs>
<clipPath id="clip0">
<rect width="40" height="40" fill="white" transform="translate(8.5 9)"/>
</clipPath>
</defs>
</svg>
