<svg width="48" height="49" viewBox="0 0 48 49" fill="none" xmlns="http://www.w3.org/2000/svg">
<path d="M41.6768 17.9277H19.3643C18.9759 17.9277 18.6611 18.2425 18.6611 18.6309C18.6611 19.0192 18.9759 19.334 19.3643 19.334H41.6768C42.0651 19.334 42.3799 19.0192 42.3799 18.6309C42.3799 18.2425 42.0651 17.9277 41.6768 17.9277Z" fill="white"/>
<path d="M41.6777 23.3047H19.3652C18.9769 23.3047 18.6621 23.6195 18.6621 24.0078C18.6621 24.3961 18.9769 24.7109 19.3652 24.7109H41.6777C42.066 24.7109 42.3809 24.3961 42.3809 24.0078C42.3809 23.6195 42.066 23.3047 41.6777 23.3047Z" fill="white"/>
<path d="M41.6777 28.6797H19.3652C18.9769 28.6797 18.6621 28.9945 18.6621 29.3828C18.6621 29.7711 18.9769 30.0859 19.3652 30.0859H41.6777C42.066 30.0859 42.3809 29.7711 42.3809 29.3828C42.3809 28.9945 42.066 28.6797 41.6777 28.6797Z" fill="white"/>
<path d="M43.9099 11.7812H17.1306C14.8756 11.7812 13.041 13.6158 13.041 15.8708V32.7099C13.041 34.9649 14.8755 36.7995 17.1306 36.7995H35.9004C36.1011 36.7995 36.2876 36.8897 36.4121 37.0473L42.4735 44.7211C42.7123 45.0235 43.0609 45.1883 43.4259 45.1883C43.5615 45.1883 43.6995 45.1655 43.8349 45.1185C44.3343 44.945 44.657 44.4914 44.657 43.9627V36.7296C46.5531 36.3754 47.9995 34.6991 47.9995 32.7099V15.8707C47.9995 13.6157 46.165 11.7812 43.9099 11.7812ZM46.5932 32.7099C46.5932 34.1702 45.4051 35.3735 43.9448 35.3921C43.56 35.3971 43.2507 35.7104 43.2507 36.0952V43.4363L37.5156 36.1757C37.1229 35.6783 36.5341 35.3931 35.9004 35.3931H17.1306C15.651 35.3931 14.4473 34.1894 14.4473 32.7098V15.8707C14.4473 14.3912 15.6509 13.1874 17.1306 13.1874H43.9099C45.3895 13.1874 46.5932 14.3912 46.5932 15.8707V32.7099Z" fill="white"/>
<path d="M10.3588 23.4056C9.87788 23.4738 9.44719 23.7214 9.14606 24.1026L4.31597 30.2175V24.089C4.31597 23.7042 4.00659 23.3908 3.62184 23.3859C2.40019 23.3703 1.40625 22.3637 1.40625 21.142V6.48313C1.40625 5.24534 2.41331 4.23828 3.65109 4.23828H26.9632C28.201 4.23828 29.2081 5.24534 29.2081 6.48313V9.1955C29.2081 9.58381 29.5229 9.89863 29.9112 9.89863C30.2995 9.89863 30.6143 9.58381 30.6143 9.1955V6.48313C30.6143 4.46994 28.9764 2.83203 26.9632 2.83203H3.65109C1.63791 2.83203 0 4.46994 0 6.48313V21.142C0 22.892 1.25353 24.3705 2.90981 24.7161V30.9379C2.90981 31.4374 3.21469 31.8661 3.68663 32.03C3.81459 32.0744 3.94491 32.096 4.07316 32.096C4.41787 32.096 4.74741 31.9402 4.97306 31.6545L10.2497 24.9743C10.3258 24.8778 10.4348 24.8152 10.5565 24.7978C10.941 24.7433 11.2085 24.3873 11.1538 24.0028C11.0992 23.6184 10.7438 23.3507 10.3588 23.4056Z" fill="white"/>
</svg>
