<svg width="48" height="49" viewBox="0 0 48 49" fill="none" xmlns="http://www.w3.org/2000/svg">
<g clip-path="url(#clip0)">
<path d="M35.9667 25.2706C35.6169 25.2706 35.3334 25.5541 35.3334 25.9039V41.1039C35.3334 41.4537 35.0498 41.7372 34.7001 41.7372H11.9C11.5502 41.7372 11.2667 41.4537 11.2667 41.1039V6.90388C11.2667 6.55407 11.5502 6.27058 11.9 6.27058H34.7C35.0498 6.27058 35.3333 6.55415 35.3333 6.90388V10.7039C35.3333 11.0537 35.6169 11.3372 35.9666 11.3372C36.3163 11.3372 36.5999 11.0537 36.5999 10.7039V6.90388C36.5999 5.85452 35.7492 5.00391 34.6999 5.00391H11.9C10.8507 5.00391 10 5.8546 10 6.90388V41.1039C10 42.1533 10.8507 43.0039 11.9 43.0039H34.7C35.7494 43.0039 36.6 42.1532 36.6 41.1039V25.904C36.6001 25.5541 36.3165 25.2706 35.9667 25.2706Z" fill="white"/>
<path d="M47.1142 7.15404C45.8813 5.92124 43.8839 5.91686 42.6457 7.14423L42.6469 7.14362L38.4771 11.3129L16.6726 33.1186C16.6662 33.1243 16.6643 33.1326 16.6586 33.1382C16.6085 33.1904 16.5678 33.2508 16.5383 33.3168L16.5332 33.3276L13.851 39.5862C13.7671 39.7819 13.7872 40.0066 13.9044 40.1844C14.0216 40.3621 14.2202 40.4691 14.4331 40.4691C14.5189 40.4693 14.6039 40.4519 14.6826 40.4178L20.9406 37.7357L20.9514 37.7306C21.0176 37.7013 21.0781 37.6606 21.13 37.6103C21.1358 37.6045 21.144 37.6026 21.1497 37.5963L42.9547 15.7925L47.124 11.6227C48.3513 10.3844 48.347 8.38691 47.1142 7.15404ZM15.6365 38.6324L17.3313 34.6778L19.591 36.9376L15.6365 38.6324ZM20.7031 36.253L18.0159 33.5658L38.9255 12.6569L41.6121 15.3435L20.7031 36.253ZM42.5076 14.4479L39.821 11.7613L40.8552 10.7264L43.5425 13.4136L42.5076 14.4479ZM46.2297 10.7296L46.2265 10.729L44.4348 12.5207L41.7508 9.83091L43.5425 8.04238C44.0225 7.56233 44.7221 7.37489 45.3778 7.55056C46.0336 7.72629 46.5457 8.23841 46.7215 8.8942C46.8971 9.54991 46.7097 10.2495 46.2297 10.7296Z" fill="white"/>
<path d="M30.8998 10.7031H15.6997C15.3499 10.7031 15.0664 10.9867 15.0664 11.3364C15.0664 11.6862 15.35 11.9697 15.6997 11.9697H30.8998C31.2496 11.9697 31.5331 11.6862 31.5331 11.3364C31.5331 10.9867 31.2495 10.7031 30.8998 10.7031Z" fill="white"/>
<path d="M31.5331 15.1372C31.5331 14.7874 31.2495 14.5039 30.8998 14.5039H15.6997C15.3499 14.5039 15.0664 14.7875 15.0664 15.1372C15.0664 15.4869 15.35 15.7705 15.6997 15.7705H30.8998C31.2495 15.7706 31.5331 15.487 31.5331 15.1372Z" fill="white"/>
<path d="M15.6997 18.3047C15.3499 18.3047 15.0664 18.5883 15.0664 18.938C15.0664 19.2877 15.35 19.5713 15.6997 19.5713H27.0997C27.4495 19.5713 27.733 19.2877 27.733 18.938C27.733 18.5883 27.4495 18.3047 27.0997 18.3047H15.6997Z" fill="white"/>
</g>
<defs>
<clipPath id="clip0">
<rect width="48" height="48" fill="white" transform="translate(0 0.00390625)"/>
</clipPath>
</defs>
</svg>
