<svg width="14" height="14" viewBox="0 0 14 14" fill="none" xmlns="http://www.w3.org/2000/svg">
<g clip-path="url(#clip0)">
<path d="M9.28257 7.45602H0.456522C0.204521 7.45602 0 7.2515 0 6.99949C0 6.74749 0.204521 6.54297 0.456522 6.54297H9.28257C9.53457 6.54297 9.73909 6.74749 9.73909 6.99949C9.73909 7.2515 9.53457 7.45602 9.28257 7.45602Z" fill="white"/>
<path d="M6.84703 9.89301C6.73012 9.89301 6.61331 9.84866 6.52437 9.75916C6.34604 9.58083 6.34604 9.29171 6.52437 9.11327L8.63656 7.00119L6.52437 4.88901C6.34604 4.71068 6.34604 4.42145 6.52437 4.24312C6.70281 4.06479 6.99193 4.06479 7.17026 4.24312L9.605 6.67797C9.78333 6.8563 9.78333 7.14542 9.605 7.32375L7.17026 9.75849C7.08076 9.84866 6.96395 9.89301 6.84703 9.89301Z" fill="white"/>
<path d="M7.30472 13.6961C4.5345 13.6961 2.08883 12.0295 1.07292 9.44972C0.98041 9.216 1.09599 8.95062 1.33038 8.85812C1.5641 8.76683 1.83015 8.88063 1.92265 9.11625C2.79981 11.3435 4.91256 12.783 7.30472 12.783C10.493 12.783 13.0874 10.1887 13.0874 7.00038C13.0874 3.81208 10.493 1.21773 7.30472 1.21773C4.91256 1.21773 2.79981 2.65729 1.92265 4.88451C1.82948 5.12012 1.5641 5.23392 1.33038 5.14264C1.09599 5.05013 0.98041 4.78475 1.07292 4.55103C2.08883 1.97128 4.5345 0.304688 7.30472 0.304688C10.9965 0.304688 14.0004 3.30864 14.0004 7.00038C14.0004 10.6921 10.9965 13.6961 7.30472 13.6961Z" fill="white"/>
</g>
<defs>
<clipPath id="clip0">
<rect width="14" height="14" fill="white"/>
</clipPath>
</defs>
</svg>
