<svg width="14" height="10" viewBox="0 0 14 10" fill="none" xmlns="http://www.w3.org/2000/svg">
<path d="M11.9412 0H1.2353C0.554115 0 0 0.554114 0 1.2353V8.64705C0 9.32824 0.554115 9.88235 1.2353 9.88235H11.9412C12.6224 9.88235 13.1765 9.32824 13.1765 8.64705V1.2353C13.1765 0.554114 12.6224 0 11.9412 0ZM11.9412 0.823525C11.9971 0.823525 12.0503 0.835132 12.099 0.855403L6.58823 5.6316L1.07745 0.855403C1.12611 0.835159 1.17933 0.823525 1.23528 0.823525H11.9412ZM11.9412 9.0588H1.2353C1.00811 9.0588 0.823526 8.87424 0.823526 8.64702V1.72547L6.31841 6.4877C6.39603 6.55483 6.49213 6.58823 6.58823 6.58823C6.68434 6.58823 6.78044 6.55486 6.85806 6.4877L12.3529 1.72547V8.64705C12.3529 8.87424 12.1684 9.0588 11.9412 9.0588Z" fill="white"/>
</svg>
