<svg width="12" height="12" viewBox="0 0 12 12" fill="none" xmlns="http://www.w3.org/2000/svg">
<path d="M2.42256 7.97679C3.60615 9.39163 5.03093 10.5056 6.65713 11.2938C7.27627 11.5872 8.10429 11.9353 9.02679 11.995C9.08398 11.9975 9.13868 12 9.19587 12C9.81502 12 10.3123 11.7862 10.7176 11.346C10.7201 11.3436 10.7251 11.3386 10.7276 11.3336C10.8718 11.1596 11.0359 11.0029 11.2075 10.8363C11.3243 10.7244 11.4437 10.6075 11.5581 10.4882C12.0877 9.93618 12.0877 9.23498 11.5531 8.70037L10.0587 7.20597C9.80507 6.94239 9.50172 6.80315 9.18344 6.80315C8.86517 6.80315 8.55932 6.9424 8.29824 7.20348L7.40806 8.09366C7.326 8.04642 7.24146 8.00414 7.16189 7.96436C7.06243 7.91463 6.97043 7.86738 6.88837 7.81517C6.07776 7.30046 5.34175 6.62909 4.63806 5.76627C4.28249 5.3162 4.04378 4.93825 3.87718 4.55284C4.11092 4.34148 4.32973 4.12018 4.54109 3.90385C4.61568 3.82677 4.69277 3.74969 4.76985 3.67261C5.03839 3.40406 5.18261 3.09324 5.18261 2.77746C5.18261 2.46167 5.04088 2.15085 4.76985 1.8823L4.02886 1.14132C3.94183 1.05429 3.85978 0.969747 3.77524 0.882719C3.61112 0.713634 3.43955 0.539577 3.27047 0.382926C3.01436 0.131786 2.71349 0 2.39521 0C2.07942 0 1.77606 0.131786 1.51001 0.385412L0.580043 1.31538C0.241875 1.65354 0.0504117 2.06382 0.0106272 2.53875C-0.0366169 3.13303 0.0727905 3.76461 0.356255 4.52797C0.791398 5.70908 1.44784 6.80564 2.42256 7.97679ZM0.617341 2.59097C0.647179 2.26026 0.773992 1.98425 1.0127 1.74554L1.93769 0.820555C2.08191 0.68131 2.24105 0.6092 2.39521 0.6092C2.54689 0.6092 2.70105 0.68131 2.84279 0.825528C3.00938 0.979693 3.16604 1.14132 3.33512 1.31289C3.41966 1.39992 3.50669 1.48695 3.59372 1.57646L4.33471 2.31745C4.48887 2.47161 4.56844 2.62826 4.56844 2.78243C4.56844 2.93659 4.48887 3.09325 4.33471 3.24741C4.25762 3.32449 4.18054 3.40406 4.10346 3.48114C3.87221 3.71488 3.65588 3.93618 3.41718 4.14753C3.4122 4.15251 3.40972 4.15499 3.40474 4.15997C3.19836 4.36635 3.23069 4.56278 3.28042 4.71198C3.2829 4.71944 3.28539 4.72441 3.28788 4.73187C3.47934 5.19188 3.7454 5.62951 4.16065 6.15168C4.90661 7.07169 5.69235 7.78533 6.55766 8.33485C6.66459 8.40448 6.77896 8.45918 6.88589 8.51388C6.98535 8.56361 7.07735 8.61086 7.1594 8.66307C7.16935 8.66805 7.17681 8.67302 7.18676 8.67799C7.26881 8.72027 7.34838 8.74016 7.42795 8.74016C7.62687 8.74016 7.75617 8.61334 7.79844 8.57107L8.72841 7.64111C8.87262 7.49689 9.02928 7.41981 9.18344 7.41981C9.37242 7.41981 9.52658 7.53668 9.62356 7.64111L11.1229 9.138C11.4213 9.43639 11.4188 9.75964 11.1155 10.0754C11.011 10.1873 10.9016 10.2942 10.7848 10.4061C10.6107 10.5752 10.4292 10.7493 10.2651 10.9457C9.97913 11.254 9.63848 11.3983 9.19836 11.3983C9.15609 11.3983 9.11133 11.3958 9.06906 11.3933C8.25348 11.3411 7.49509 11.0228 6.92567 10.7518C5.37905 10.0033 4.0214 8.94157 2.895 7.59387C1.96753 6.47741 1.34341 5.43804 0.930644 4.32408C0.674531 3.64028 0.577556 3.09076 0.617341 2.59097Z" fill="white"/>
</svg>
