<svg width="48" height="49" viewBox="0 0 48 49" fill="none" xmlns="http://www.w3.org/2000/svg">
<path d="M43.8998 35.4055L35.3983 29.7359C34.3194 29.0222 32.8732 29.2571 32.0756 30.2756L29.5992 33.4596C29.2809 33.8792 28.7024 34.001 28.242 33.7452L27.7709 33.4855C26.2093 32.6343 24.2663 31.5747 20.3515 27.6585C16.4367 23.7423 15.3749 21.7978 14.5237 20.2391L14.2654 19.768C14.0062 19.3077 14.1256 18.7267 14.5454 18.4059L17.7273 15.9302C18.7454 15.1325 18.9806 13.6868 18.2677 12.6076L12.5981 4.106C11.8675 3.00703 10.4017 2.67712 9.2707 3.35703L5.71566 5.49255C4.59865 6.14924 3.77914 7.21277 3.42897 8.46029C2.14881 13.1247 3.11186 21.1748 14.9704 33.0347C24.4036 42.4672 31.4261 45.0038 36.253 45.0038C37.3638 45.0085 38.4703 44.864 39.5427 44.5741C40.7905 44.2243 41.8542 43.4047 42.5105 42.2874L44.6481 38.7345C45.329 37.6032 44.9993 36.1365 43.8998 35.4055ZM43.442 38.0163L41.3093 41.5713C40.8381 42.3778 40.073 42.9707 39.1744 43.226C34.8684 44.4082 27.3454 43.429 15.9607 32.0443C4.57609 20.6597 3.59696 13.1374 4.77918 8.83063C5.03477 7.93098 5.62847 7.16495 6.43592 6.69298L9.99097 4.56025C10.4817 4.26496 11.1179 4.4081 11.4349 4.88499L14.5147 9.50882L17.0997 13.3858C17.4092 13.8539 17.3075 14.4813 16.8659 14.8277L13.6832 17.3034C12.7147 18.044 12.4381 19.384 13.0344 20.4476L13.2871 20.9068C14.1817 22.5474 15.2939 24.5884 19.3543 28.6482C23.4147 32.7078 25.455 33.8201 27.095 34.7146L27.5548 34.968C28.6183 35.5642 29.9584 35.2877 30.699 34.3191L33.1747 31.1365C33.5211 30.6951 34.1483 30.5935 34.6166 30.9027L43.1174 36.5723C43.5946 36.8891 43.7377 37.5256 43.442 38.0163Z" fill="white"/>
<path d="M26.7995 10.0053C33.3682 10.0126 38.6913 15.3358 38.6986 21.9044C38.6986 22.291 39.012 22.6043 39.3986 22.6043C39.7851 22.6043 40.0985 22.291 40.0985 21.9044C40.0904 14.5629 34.141 8.61351 26.7995 8.60547C26.4129 8.60547 26.0996 8.9188 26.0996 9.30539C26.0996 9.69197 26.4129 10.0053 26.7995 10.0053Z" fill="white"/>
<path d="M26.7995 14.2045C31.0497 14.2095 34.494 17.6538 34.499 21.904C34.499 22.2905 34.8124 22.6039 35.1989 22.6039C35.5855 22.6039 35.8988 22.2905 35.8988 21.904C35.893 16.8809 31.8225 12.8104 26.7995 12.8047C26.4129 12.8047 26.0996 13.118 26.0996 13.5046C26.0996 13.8912 26.4129 14.2045 26.7995 14.2045Z" fill="white"/>
<path d="M26.7995 18.4076C28.7314 18.4099 30.2969 19.9755 30.2993 21.9074C30.2993 22.294 30.6127 22.6073 30.9992 22.6073C31.3857 22.6073 31.6991 22.294 31.6991 21.9074C31.696 19.2027 29.5042 17.0108 26.7995 17.0078C26.4129 17.0078 26.0996 17.3211 26.0996 17.7077C26.0996 18.0943 26.4129 18.4076 26.7995 18.4076Z" fill="white"/>
</svg>
