<svg width="42" height="43" viewBox="0 0 42 43" fill="none" xmlns="http://www.w3.org/2000/svg">
<path d="M16.6185 18.3542C11.765 18.3542 7.81641 14.4056 7.81641 9.55208C7.81641 4.69861 11.765 0.75 16.6185 0.75C21.472 0.75 25.4206 4.69861 25.4206 9.55208C25.4206 14.4056 21.472 18.3542 16.6185 18.3542ZM16.6185 2.51042C12.735 2.51042 9.57682 5.6686 9.57682 9.55208C9.57682 13.4356 12.735 16.5937 16.6185 16.5937C20.502 16.5937 23.6602 13.4356 23.6602 9.55208C23.6602 5.6686 20.502 2.51042 16.6185 2.51042Z" fill="white"/>
<path d="M15.738 37.7187H1.65462C1.16875 37.7187 0.774414 37.3244 0.774414 36.8385V29.7969C0.774414 25.4293 4.32869 21.875 8.69629 21.875H19.2588C19.7447 21.875 20.139 22.2693 20.139 22.7552C20.139 23.2411 19.7447 23.6354 19.2588 23.6354H8.69629C5.29868 23.6354 2.53483 26.3993 2.53483 29.7969V35.9583H15.738C16.2238 35.9583 16.6182 36.3527 16.6182 36.8385C16.6182 37.3244 16.2238 37.7187 15.738 37.7187Z" fill="white"/>
<path d="M30.7018 35.9583C28.276 35.9583 26.3008 33.9831 26.3008 31.5573C26.3008 29.1314 28.276 27.1562 30.7018 27.1562C33.1277 27.1562 35.1028 29.1314 35.1028 31.5573C35.1028 33.9831 33.1277 35.9583 30.7018 35.9583ZM30.7018 28.9167C29.246 28.9167 28.0612 30.1014 28.0612 31.5573C28.0612 33.0131 29.246 34.1979 30.7018 34.1979C32.1577 34.1979 33.3424 33.0131 33.3424 31.5573C33.3424 30.1014 32.1577 28.9167 30.7018 28.9167Z" fill="white"/>
<path d="M32.105 43.0008H29.2971C28.3888 43.0008 27.6353 42.3196 27.5455 41.4147L27.3219 39.1772C26.7885 38.9396 26.2798 38.6438 25.7992 38.2917L23.743 39.2195C22.9174 39.5962 21.9474 39.2811 21.495 38.4942L20.0919 36.063C19.6377 35.2761 19.8525 34.2833 20.5883 33.7534L22.3998 32.4507C22.3646 32.1778 22.34 31.875 22.34 31.5581C22.34 31.2413 22.3646 30.9367 22.3998 30.6656L20.5883 29.3629C19.8525 28.833 19.6377 27.8401 20.0919 27.0532L21.495 24.6221C21.9491 23.8352 22.9139 23.5236 23.743 23.8968L25.7992 24.8245C26.2798 24.4725 26.7885 24.1767 27.3219 23.9391L27.5455 21.7016C27.6353 20.7985 28.3888 20.1172 29.2971 20.1172H32.105C33.0134 20.1172 33.7668 20.7985 33.8566 21.7033L34.0802 23.9408C34.6153 24.1785 35.1241 24.476 35.6029 24.8263L37.6591 23.8986C38.4883 23.5271 39.4547 23.8387 39.9072 24.6239L41.3102 27.055C41.7644 27.8419 41.5496 28.8348 40.8138 29.3647L39.0023 30.6674C39.0375 30.9402 39.0622 31.243 39.0622 31.5599C39.0622 31.8768 39.0375 32.1813 39.0023 32.4524L40.8138 33.7551C41.5496 34.285 41.7644 35.2779 41.3102 36.0648L39.9089 38.4942C39.4547 39.2793 38.4918 39.5944 37.6609 39.2195L35.6047 38.2917C35.1241 38.6438 34.6153 38.9396 34.0819 39.1772L33.8566 41.4165C33.7668 42.3196 33.0134 43.0008 32.105 43.0008ZM25.9224 36.3905C26.1249 36.3905 26.3255 36.4609 26.4875 36.5964C27.0843 37.0964 27.7444 37.4784 28.4468 37.7354C28.7637 37.8516 28.9873 38.1386 29.0207 38.4748L29.2989 41.2404H32.1068L32.3831 38.4748C32.4166 38.1386 32.6402 37.8516 32.957 37.7354C33.6594 37.4784 34.3196 37.0946 34.9164 36.5964C35.1769 36.3799 35.536 36.3306 35.8424 36.4697L38.3844 37.6175L39.7874 35.1864L37.5376 33.5703C37.263 33.3731 37.1275 33.0351 37.1838 32.7024C37.2489 32.331 37.3017 31.9525 37.3017 31.5617C37.3017 31.1708 37.2489 30.7924 37.1838 30.4209C37.1257 30.0882 37.263 29.7519 37.5376 29.553L39.7874 27.937L38.3844 25.5058L35.8424 26.6519C35.5343 26.7909 35.1752 26.7416 34.9146 26.5251C34.3196 26.0251 33.6612 25.6431 32.9553 25.3861C32.6384 25.2699 32.4148 24.983 32.3814 24.6467L32.105 21.8758H29.2971L29.0207 24.6415C28.9873 24.9777 28.7637 25.2646 28.4468 25.3808C27.7444 25.6379 27.0843 26.0216 26.4875 26.5198C26.2287 26.7364 25.8696 26.7874 25.5615 26.6466L23.0195 25.4988L21.6164 27.9299L23.8662 29.546C24.1409 29.7431 24.2764 30.0811 24.2201 30.4139C24.1549 30.7853 24.1021 31.1638 24.1021 31.5546C24.1021 31.9454 24.1549 32.3239 24.2201 32.6954C24.2782 33.0281 24.1409 33.3643 23.8662 33.5632L21.6164 35.1793L23.0195 37.6104L25.5615 36.4644C25.6777 36.4151 25.7992 36.3905 25.9224 36.3905Z" fill="white"/>
</svg>
