<svg width="35" height="22" viewBox="0 0 35 22" fill="none" xmlns="http://www.w3.org/2000/svg">
<path d="M32.1199 9.35253L31.2394 5.83066C31.4802 5.77953 31.6608 5.56597 31.6608 5.3101V4.74226C31.6608 3.50936 30.6577 2.50636 29.4249 2.50636H25.4145V1.33508C25.4145 0.728396 24.9209 0.234863 24.3143 0.234863H3.87158C3.2649 0.234863 2.77136 0.728396 2.77136 1.33508V10.9886C2.77136 11.2826 3.0097 11.521 3.30374 11.521C3.59773 11.521 3.83612 11.2826 3.83612 10.9886V1.33508C3.83612 1.31549 3.85199 1.29962 3.87158 1.29962H24.3142C24.3338 1.29962 24.3497 1.31549 24.3497 1.33508V10.9887C24.3497 11.2827 24.588 11.5211 24.882 11.5211C25.176 11.5211 25.4144 11.2828 25.4144 10.9887V10.3852H31.6944C31.6949 10.3852 31.6953 10.3853 31.6958 10.3853C31.6963 10.3853 31.6968 10.3853 31.6973 10.3853C32.47 10.3858 33.1262 10.893 33.3516 11.5919H31.6962C31.4022 11.5919 31.1638 11.8303 31.1638 12.1243V13.26C31.1638 14.1798 31.9121 14.9281 32.8319 14.9281H33.4352V17.2704H32.0432C31.586 15.9501 30.3308 14.999 28.8569 14.999C27.383 14.999 26.1278 15.9501 25.6706 17.2704H25.4143V13.2599C25.4143 12.966 25.1759 12.7276 24.8819 12.7276C24.5879 12.7276 24.3495 12.9659 24.3495 13.2599V17.2703H13.3043C12.847 15.9499 11.5919 14.9989 10.118 14.9989C8.64408 14.9989 7.38887 15.9499 6.93166 17.2703H3.87158C3.85199 17.2703 3.83612 17.2544 3.83612 17.2348V16.0636H6.14301C6.437 16.0636 6.6754 15.8253 6.6754 15.5312C6.6754 15.2372 6.43706 14.9989 6.14301 14.9989H1.03238C0.738399 14.9989 0.5 15.2372 0.5 15.5312C0.5 15.8253 0.738333 16.0636 1.03238 16.0636H2.77143V17.2348C2.77143 17.8415 3.26496 18.3351 3.87165 18.3351H6.74731C6.74718 18.3469 6.74638 18.3586 6.74638 18.3705C6.74638 20.2296 8.25892 21.7421 10.118 21.7421C11.977 21.7421 13.4896 20.2296 13.4896 18.3705C13.4896 18.3586 13.4888 18.3469 13.4886 18.3351H25.4863C25.4861 18.3469 25.4853 18.3586 25.4853 18.3705C25.4853 20.2296 26.9979 21.7421 28.8569 21.7421C30.716 21.7421 32.2285 20.2296 32.2285 18.3705C32.2285 18.3586 32.2277 18.3469 32.2276 18.3351H33.9676C34.2616 18.3351 34.5 18.0967 34.5 17.8027V12.1242C34.5001 10.7222 33.4657 9.55739 32.1199 9.35253ZM25.4145 3.57105H29.4249C30.0707 3.57105 30.5961 4.09646 30.5961 4.74226V4.77772H25.4145V3.57105ZM25.4145 9.32052V5.84242H30.1449L31.0145 9.32052H25.4145ZM10.118 20.6775C8.84595 20.6775 7.81108 19.6427 7.81108 18.3706C7.81108 17.0986 8.84595 16.0638 10.118 16.0638C11.39 16.0638 12.4249 17.0986 12.4249 18.3706C12.4249 19.6427 11.39 20.6775 10.118 20.6775ZM28.8571 20.6775C27.585 20.6775 26.5502 19.6427 26.5502 18.3706C26.5502 17.0986 27.585 16.0638 28.8571 16.0638C30.1291 16.0638 31.1639 17.0986 31.1639 18.3706C31.1639 19.6427 30.1291 20.6775 28.8571 20.6775ZM33.4354 13.8633H32.832C32.4993 13.8633 32.2286 13.5926 32.2286 13.2599V12.6566H33.4353V13.8633H33.4354Z" fill="black"/>
<path d="M10.1178 17.2705C9.51111 17.2705 9.01758 17.764 9.01758 18.3707C9.01758 18.9774 9.51111 19.471 10.1178 19.471C10.7245 19.471 11.218 18.9774 11.218 18.3707C11.218 17.764 10.7245 17.2705 10.1178 17.2705Z" fill="black"/>
<path d="M28.8571 17.2705C28.2504 17.2705 27.7568 17.764 27.7568 18.3707C27.7568 18.9774 28.2504 19.471 28.8571 19.471C29.4637 19.471 29.9573 18.9774 29.9573 18.3707C29.9573 17.764 29.4637 17.2705 28.8571 17.2705Z" fill="black"/>
<path d="M22.6112 15.0005H14.6613C14.3673 15.0005 14.1289 15.2388 14.1289 15.5329C14.1289 15.8269 14.3672 16.0652 14.6613 16.0652H22.6112C22.9052 16.0652 23.1436 15.8269 23.1436 15.5329C23.1436 15.2388 22.9052 15.0005 22.6112 15.0005Z" fill="black"/>
<path d="M8.98235 12.728H2.16812C1.87414 12.728 1.63574 12.9664 1.63574 13.2604C1.63574 13.5545 1.87407 13.7928 2.16812 13.7928H8.98235C9.27633 13.7928 9.51473 13.5545 9.51473 13.2604C9.51473 12.9664 9.27633 12.728 8.98235 12.728Z" fill="black"/>
<path d="M19.012 5.50012C18.8042 5.29227 18.467 5.29227 18.2592 5.50019L13.5249 10.2344L11.0621 7.77155C10.8542 7.56363 10.5171 7.56363 10.3093 7.77155C10.1013 7.97947 10.1013 8.31648 10.3093 8.5244L13.1485 11.3637C13.2525 11.4677 13.3887 11.5196 13.5249 11.5196C13.6611 11.5196 13.7975 11.4677 13.9013 11.3637L19.0119 6.25303C19.2199 6.04505 19.2199 5.70804 19.012 5.50012Z" fill="black"/>
</svg>
