<svg width="39" height="40" viewBox="0 0 39 40" fill="none" xmlns="http://www.w3.org/2000/svg">
<path d="M38.0554 24.1937C38.0371 24.1667 38.0192 24.1489 38.0014 24.1218C36.9225 22.813 34.9926 22.6133 33.6686 23.6733C32.1256 24.9205 29.8381 26.7773 28.1877 28.105C27.1303 28.9526 25.8279 29.437 24.4736 29.4863L20.3563 29.6209C20.2909 29.6251 20.2256 29.6105 20.1683 29.5787C20.111 29.5469 20.0641 29.4992 20.0331 29.4415L19.5759 28.6611C19.5467 28.6112 19.5298 28.5551 19.5267 28.4974C19.5235 28.4396 19.5341 28.382 19.5576 28.3292C19.5798 28.2754 19.6154 28.2283 19.661 28.1922C19.7066 28.156 19.7606 28.1322 19.818 28.1229L24.0699 27.3155C25.6335 27.0148 26.7012 25.5603 26.519 23.9785C26.3441 22.3971 24.968 21.2256 23.3793 21.3052L17.6829 21.0718C15.3863 20.9912 13.431 21.4306 11.1435 22.5341L8.39832 23.8618C8.17606 23.4561 7.84915 23.1173 7.4516 22.8806C7.05405 22.644 6.60037 22.5182 6.13773 22.5162H2.83654C1.41918 22.5162 0.297852 23.7004 0.297852 25.1177V37.3805C0.297852 38.807 1.41918 39.9998 2.83654 39.9998H6.12876C7.55526 39.9998 8.72145 38.7979 8.72145 37.3804V36.6001L11.6277 36.0619C12.5281 35.9083 13.4425 35.8542 14.3546 35.9004L23.0113 36.3041C23.1907 36.313 23.3701 36.313 23.5495 36.313C26.506 36.3155 29.3696 35.2806 31.6414 33.3886L37.6334 28.4099C37.6426 28.4099 37.6425 28.4011 37.6517 28.4011C38.8939 27.3383 39.0723 25.4828 38.0554 24.2028V24.1937ZM6.93602 37.3357C6.93574 37.545 6.85248 37.7456 6.70449 37.8936C6.55651 38.0416 6.35589 38.1248 6.14661 38.1251H2.88139C2.67213 38.1247 2.47155 38.0415 2.32358 37.8935C2.17562 37.7455 2.09233 37.5449 2.09198 37.3357V25.0998C2.09233 24.8905 2.17562 24.6899 2.32358 24.542C2.47155 24.394 2.67213 24.3107 2.88139 24.3104H6.15567C6.36492 24.3107 6.56551 24.394 6.71348 24.542C6.86144 24.6899 6.94473 24.8905 6.94508 25.0998V37.3357H6.93602ZM36.4942 27.0464L30.5109 32.0159C28.4388 33.7366 25.801 34.6254 23.1101 34.5099L14.4443 34.1062C13.2246 34.0526 12.453 34.1241 11.3495 34.2947C11.3408 34.2947 11.3408 34.2947 11.3316 34.3034L8.73015 34.779V25.7187L11.9417 24.158C13.9781 23.1712 15.6288 22.7944 17.6289 22.8659L23.3614 23.0993H23.4511C24.099 23.059 24.6656 23.5314 24.7427 24.1758C24.8188 24.8226 24.3857 25.4198 23.7472 25.5483L19.4862 26.3557C19.1449 26.4191 18.8239 26.564 18.5505 26.778C18.2772 26.992 18.0595 27.2688 17.916 27.5849C17.7724 27.901 17.7073 28.2471 17.7261 28.5937C17.7449 28.9404 17.847 29.2774 18.0239 29.5761L18.4811 30.3564C18.6775 30.6901 18.9604 30.9646 19.2999 31.1509C19.6393 31.3373 20.0228 31.4285 20.4098 31.415L24.5276 31.2804C26.2713 31.2202 27.9487 30.5971 29.3089 29.5043C30.9594 28.1677 33.2469 26.3197 34.7898 25.0638C34.9193 24.9586 35.0687 24.8805 35.229 24.8342C35.3894 24.788 35.5574 24.7746 35.723 24.7947C36.0502 24.8273 36.3521 24.9848 36.5661 25.2344L36.5752 25.2431C36.5931 25.2701 36.6109 25.288 36.6288 25.315C36.7361 25.4364 36.8178 25.5781 36.8693 25.7317C36.9207 25.8853 36.9407 26.0477 36.9282 26.2092C36.9156 26.3707 36.8708 26.528 36.7962 26.6719C36.7217 26.8157 36.619 26.943 36.4942 27.0464Z" fill="#750E6C"/>
<path d="M16.2474 19.7354H31.65C32.8567 19.7354 33.8379 18.7622 33.8478 17.5555V6.47679C33.8421 6.35999 33.8178 6.24484 33.7758 6.13573L31.8471 1.37259C31.6814 0.970009 31.4008 0.625148 31.0403 0.381047C30.6798 0.136946 30.2554 0.00441749 29.82 0L18.0773 0C17.6419 0.00466287 17.2177 0.138407 16.8584 0.384297C16.4991 0.630187 16.2208 0.977165 16.0589 1.3813L14.1572 6.13573C14.1198 6.24844 14.1045 6.36734 14.1123 6.48585V17.5646C14.1085 17.8477 14.1609 18.1288 14.2664 18.3915C14.3719 18.6543 14.5284 18.8935 14.7269 19.0954C14.9255 19.2973 15.1621 19.4578 15.4231 19.5677C15.684 19.6775 15.9642 19.7346 16.2473 19.7355L16.2474 19.7354ZM31.65 17.9412H16.2474C16.0323 17.9412 15.9065 17.771 15.9065 17.5555V7.35591H20.7507V11.1684C20.7503 11.2863 20.7733 11.4031 20.8182 11.5121C20.8632 11.6211 20.9293 11.7202 21.0126 11.8035C21.096 11.8869 21.195 11.953 21.304 11.9979C21.413 12.0429 21.5298 12.0658 21.6477 12.0655C21.7644 12.0673 21.8803 12.0458 21.9886 12.0027L26.6533 10.1011C26.8193 10.0342 26.9611 9.91873 27.0604 9.76986C27.1596 9.621 27.2116 9.44564 27.2095 9.26674V7.35591H32.0536V17.5555C32.0503 17.6599 32.0061 17.7587 31.9306 17.8309C31.8551 17.903 31.7544 17.9426 31.65 17.9412ZM25.4154 7.35591V8.6658L22.5448 9.83198V7.35591H25.4154ZM22.6883 5.56179L23.2354 1.79412H24.6889L25.272 5.56179H22.6883ZM30.1788 2.0453L31.5964 5.56179H27.075L26.4919 1.79412H29.811C29.8899 1.79636 29.9666 1.82122 30.0318 1.86574C30.097 1.91027 30.1481 1.97259 30.179 2.0453H30.1788ZM17.7276 2.0453C17.7565 1.97308 17.8058 1.91085 17.8696 1.86623C17.9333 1.82162 18.0086 1.79656 18.0864 1.79412H21.4235L20.8764 5.56179H16.3014L17.7276 2.0453Z" fill="#750E6C"/>
</svg>
