<svg width="28" height="29" viewBox="0 0 28 29" fill="none" xmlns="http://www.w3.org/2000/svg">
<path d="M12.8008 26.265H3.30263C2.94973 26.265 2.62817 26.1015 2.42024 25.8162C2.21227 25.5309 2.15501 25.1744 2.26307 24.8382C3.34217 21.4834 6.63304 19.1403 10.2658 19.1403C11.9562 19.1403 13.5794 19.6493 14.9601 20.6123C15.4546 20.9572 16.135 20.8359 16.4801 20.3414C16.825 19.8469 16.7037 19.1664 16.2092 18.8214C15.5257 18.3447 14.7955 17.9558 14.0317 17.6589C15.048 16.7349 15.7222 15.4411 15.8393 13.9922C17.3802 12.4912 19.4001 11.6687 21.5653 11.6687C23.2556 11.6687 24.8789 12.1777 26.2596 13.1406C26.7541 13.4855 27.4346 13.3643 27.7796 12.8698C28.1245 12.3752 28.0032 11.6947 27.5087 11.3498C26.8252 10.8731 26.095 10.4842 25.3312 10.1873C26.4522 9.16802 27.157 7.69868 27.157 6.06779C27.157 2.99774 24.6593 0.5 21.5892 0.5C18.519 0.5 16.0214 2.99774 16.0214 6.0679C16.0214 7.69217 16.7205 9.15627 17.8336 10.175C17.6813 10.2337 17.5301 10.296 17.38 10.3621C16.6969 10.6627 16.0543 11.0317 15.4571 11.4658C14.6331 9.4197 12.6272 7.97168 10.2897 7.97168C7.21951 7.97168 4.72182 10.4694 4.72182 13.5396C4.72182 15.1591 5.4169 16.6194 6.52432 17.6378C3.5631 18.7475 1.16205 21.1306 0.184565 24.1698C-0.139622 25.1778 0.0320966 26.2467 0.655753 27.1024C1.2793 27.9579 2.24399 28.4486 3.30268 28.4486H12.8008C13.4038 28.4486 13.8925 27.9599 13.8925 27.3569C13.8925 26.754 13.4037 26.265 12.8008 26.265ZM21.5893 2.68345C23.4554 2.68345 24.9736 4.20169 24.9736 6.06784C24.9736 7.934 23.4554 9.45223 21.5893 9.45223C19.7231 9.45223 18.2049 7.934 18.2049 6.06784C18.2049 4.20169 19.7231 2.68345 21.5893 2.68345ZM10.2897 10.1551C12.1559 10.1551 13.6741 11.6733 13.6741 13.5395C13.6741 15.4056 12.1559 16.9239 10.2897 16.9239C8.42356 16.9239 6.90533 15.4056 6.90533 13.5395C6.90533 11.6733 8.42356 10.1551 10.2897 10.1551Z" fill="#FFDC52"/>
<path d="M27.5197 18.3324C27.0294 17.9815 26.3474 18.0943 25.9965 18.5847L20.6152 26.1013C20.4682 26.2717 20.2841 26.3085 20.1854 26.3151C20.0838 26.322 19.8866 26.3088 19.7175 26.1479L16.2338 22.8028C15.7988 22.3851 15.1076 22.3992 14.6902 22.8341C14.2725 23.269 14.2866 23.9601 14.7215 24.3777L18.2087 27.7261C18.731 28.2233 19.4281 28.4999 20.1454 28.4999C20.2071 28.4999 20.2689 28.4978 20.3307 28.4937C21.112 28.4416 21.8416 28.0617 22.3322 27.4512C22.3449 27.4354 22.357 27.4193 22.3689 27.4028L27.772 19.8557C28.1229 19.3654 28.01 18.6834 27.5197 18.3324Z" fill="#FFDC52"/>
</svg>
