<svg id="Layer_1" data-name="Layer 1" xmlns="http://www.w3.org/2000/svg" viewBox="0 0 68.37 90"><defs><style>.cls-1{fill:#1c1d1d;}</style></defs><title>Illus-hand-corner-3-static</title><path class="cls-1" d="M51.43,18.91v-.05c-.07-.56-.13-1.27-.19-2-.39-4.44-.85-10-4.48-10h-.07A4.74,4.74,0,0,0,44,7.62c-1.13.82-1.85,2.46-2,5.6-.06,1.36-.13,3.89-.19,6.13a3.8,3.8,0,0,0-.55-.16,4,4,0,0,0-.58-.08,4.09,4.09,0,0,0-3.2,1.13,4.89,4.89,0,0,0-.37.41,3.61,3.61,0,0,0-2.63-1.34,4.09,4.09,0,0,0-3.11,1.05c-.05-.42-.12-.86-.18-1.32-.18-1.31-.35-2.52-.5-3.64A53.56,53.56,0,0,0,29.18,7c-.29-.88-1.16-3.51-4.05-3.51h-.08a4.23,4.23,0,0,0-3.24,1.39,4.18,4.18,0,0,0-.7,1.1,7.5,7.5,0,0,0-.41,3.72c.12,1,1.07,11.88,1.63,18.44h0c-1.55.11-4.19.4-5.35,1.51v0a.75.75,0,0,0-.15.16l0,0-.13.2h0a1.63,1.63,0,0,0-.11.23l0,.08c-1,2.93.93,15.89,4.37,22.72A175.58,175.58,0,0,1,20.66,90h3a179.65,179.65,0,0,0,.13-37.45,1.52,1.52,0,0,0-.16-.54c-3.44-6.59-4.69-17.88-4.42-20.27l0,0,.07,0,.09,0,.07,0,.1,0,.08,0,.12,0,.09,0,.14,0,.09,0,.16,0,.08,0,.27,0,.28-.05H21l.2,0,.13,0,.18,0h.15a1,1,0,0,1,.18,0H22l.19,0h.16l.19,0h4l.35,0,.27,0,.2,0,.22,0,.2,0,.21,0,.21,0,.21,0,.2,0,.2,0,.2,0,.2,0,.2,0,.2.05.19.05.11,0a3.1,3.1,0,0,1-.93,2.11l0,0c-1.09.8-2.9,1.07-5.31.78a1.48,1.48,0,1,0-.35,2.94l.56.07c3.1.29,5.37-.19,6.93-1.44.16-.12.3-.25.44-.37A5.65,5.65,0,0,0,32.2,37a3.42,3.42,0,0,0,2.2.76,3.78,3.78,0,0,0,1.48-.31,4,4,0,0,0,1.72-1.49,5.19,5.19,0,0,0,.8.83,3.44,3.44,0,0,0,2.2.76,3.64,3.64,0,0,0,1.48-.31c1-.4,2.55-1.6,2.7-5,0-.33,0-.68,0-1.05a37.23,37.23,0,0,0-.09-7c0-.14-.05-.29-.07-.43,0-1.09.16-7.87.28-10.4.12-2.77.52-3.33,1.21-3.46a4.84,4.84,0,0,1,.57-.05s.5.28.93,2.32a41.31,41.31,0,0,1,.62,5c.06.76.12,1.48.2,2.09s1.07,12.64,1.68,27.25c.14,3.37.25,6.62.33,9.73.34,14.34,0,25.88-1.05,33.83h3C55.47,65.9,51.6,20.87,51.43,18.91Zm-26.14,9c-.36-4.14-1.5-17.35-1.64-18.53A3.55,3.55,0,0,1,24,6.87l.13-.12a1.49,1.49,0,0,1,.93-.25c.36,0,.78,0,1.27,1.47a53.75,53.75,0,0,1,1.36,7.82c.15,1.13.32,2.35.5,3.67.26,1.84.45,3.35.59,4.59.24,2.16.33,3.5.35,4.31Zm10.38,3.29c0,.38,0,.74-.06,1.08,0,1.22-.36,2.11-.85,2.37a.79.79,0,0,1-.65,0c-.71-.63-.93-1.37-1.12-3.19a7.12,7.12,0,0,0-.09-1c0-.27,0-.55-.07-.85-.09-1.06-.19-2.36-.36-3.9,0-.79.16-2.55.87-3.24a1.08,1.08,0,0,1,.92-.29C36.11,22.39,35.79,28.8,35.67,31.21Zm6.2-.2c0,.38,0,.74,0,1.07-.06,1.23-.38,2.12-.85,2.38a.81.81,0,0,1-.66,0c-.91-.81-1-1.79-1.29-5-.08-1-.18-2.3-.34-3.78,0-.07,0-.12,0-.18a5.16,5.16,0,0,1,.88-3.18,1.1,1.1,0,0,1,.92-.29.94.94,0,0,1,.73.5,2.37,2.37,0,0,1,.23.45C42.17,24.92,42,29.15,41.87,31Z"/></svg>