<svg width="24" height="24" viewBox="0 0 24 24" fill="none" xmlns="http://www.w3.org/2000/svg">
<path d="M5.31893 14.5047L4.48352 17.6234L1.43012 17.688C0.517597 15.9954 0 14.059 0 12.0011C0 10.0112 0.48394 8.13473 1.34176 6.48242H1.34241L4.0608 6.9808L5.25162 9.68288C5.00239 10.4095 4.86654 11.1895 4.86654 12.0011C4.86664 12.882 5.0262 13.726 5.31893 14.5047Z" fill="#FBBB00"/>
<path d="M23.7902 9.75781C23.9281 10.4837 23.9999 11.2334 23.9999 11.9996C23.9999 12.8587 23.9096 13.6967 23.7375 14.5051C23.1534 17.2559 21.627 19.6579 19.5125 21.3577L19.5118 21.357L16.0878 21.1823L15.6033 18.1572C17.0063 17.3344 18.1028 16.0466 18.6804 14.5051H12.2637V9.75781H18.774H23.7902Z" fill="#518EF8"/>
<path d="M19.5115 21.3578L19.5122 21.3584C17.4557 23.0114 14.8434 24.0004 11.9996 24.0004C7.42972 24.0004 3.45653 21.4461 1.42969 17.6872L5.31851 14.5039C6.3319 17.2085 8.94093 19.1338 11.9996 19.1338C13.3143 19.1338 14.546 18.7784 15.6029 18.158L19.5115 21.3578Z" fill="#28B446"/>
<path d="M19.6597 2.76264L15.7722 5.94528C14.6784 5.26156 13.3854 4.86659 12.0001 4.86659C8.87217 4.86659 6.21434 6.88021 5.25171 9.6818L1.34245 6.48135H1.3418C3.33896 2.63078 7.36227 0 12.0001 0C14.9118 0 17.5814 1.03716 19.6597 2.76264Z" fill="#F14336"/>
</svg>
