<svg width="48" height="48" viewBox="0 0 48 48" fill="none" xmlns="http://www.w3.org/2000/svg">
<circle cx="24" cy="24" r="24" fill="#0088CC"/>
<circle cx="24" cy="24" r="23.5" stroke="#428BF9" stroke-opacity="0.2"/>
<g clip-path="url(#clip0)">
<g clip-path="url(#clip1)">
<path d="M21.0627 25.9761L20.765 30.1641C21.191 30.1641 21.3755 29.9811 21.5967 29.7614L23.594 27.8526L27.7325 30.8834C28.4915 31.3064 29.0262 31.0836 29.231 30.1851L31.9475 17.4561L31.9482 17.4554C32.189 16.3334 31.5425 15.8946 30.803 16.1699L14.8355 22.2831C13.7457 22.7061 13.7622 23.3136 14.6502 23.5889L18.7325 24.8586L28.2147 18.9254C28.661 18.6299 29.0667 18.7934 28.733 19.0889L21.0627 25.9761Z" fill="white"/>
</g>
</g>
<defs>
<clipPath id="clip0">
<rect width="18" height="18" fill="white" transform="translate(14 14.5903)"/>
</clipPath>
<clipPath id="clip1">
<rect width="18" height="18" fill="white" transform="translate(14 14.5903)"/>
</clipPath>
</defs>
</svg>
