<?xml version="1.0" encoding="utf-8"?><svg xmlns="http://www.w3.org/2000/svg" xmlns:xlink="http://www.w3.org/1999/xlink"><symbol viewBox="0 0 32 32" id="Minus" xmlns="http://www.w3.org/2000/svg"><path d="M26.5 14h-21c-.9 0-1.5.8-1.5 2s.6 2 1.5 2h21c.9 0 1.5-.8 1.5-2s-.6-2-1.5-2z"/></symbol><symbol viewBox="0 0 32 32" id="Plus" xmlns="http://www.w3.org/2000/svg"><path d="M30 14H18V2c0-1.2-.8-2-2-2s-2 .8-2 2v12H2c-1.2 0-2 .8-2 2s.8 2 2 2h12v12c0 1.2.8 2 2 2s2-.8 2-2V18h12c1.2 0 2-.8 2-2s-.8-2-2-2z"/></symbol><symbol viewBox="0 0 32 32" id="accessibility" xmlns="http://www.w3.org/2000/svg"><path d="M13 3a3 3 0 116 0 3 3 0 01-6 0z"/><path d="M20 10l10.3-4.443-.743-1.857L17 8h-2L2.443 3.7 1.7 5.557 12 10v8L7.898 31.268l1.87.709L15.572 19h.857l5.804 12.977 1.87-.709L20.001 18z"/></symbol><symbol viewBox="0 0 20 23" id="cart" xmlns="http://www.w3.org/2000/svg"><path d="M19.266 22.241l-.689-20.677a.645.645 0 00-.644-.623H1.364a.645.645 0 00-.644.623L.03 22.275a.645.645 0 00.644.666h17.95a.644.644 0 00.642-.7zM1.34 21.652L1.988 2.23H17.31l.647 19.422H1.34z"/><path d="M13.79 5.082a.645.645 0 00-.644.645 3.502 3.502 0 01-3.498 3.497A3.502 3.502 0 016.15 5.727a.645.645 0 00-1.289 0 4.792 4.792 0 004.787 4.786 4.792 4.792 0 004.787-4.786.645.645 0 00-.645-.645z"/></symbol><symbol viewBox="0 0 28 21" id="chart" xmlns="http://www.w3.org/2000/svg"><path d="M1.448 20.5a1.4 1.4 0 00.555-.114c.175-.075.335-.186.47-.325l8.148-8.44 3.32 3.44c.135.139.295.25.47.325a1.405 1.405 0 001.579-.325l9.113-9.44V9c0 .398.152.78.424 1.06.271.282.64.44 1.024.44s.752-.158 1.024-.44c.271-.28.424-.662.424-1.06L28 2c0-.398-.153-.78-.424-1.06A1.423 1.423 0 0026.552.5h-6.759c-.384 0-.752.158-1.024.44A1.528 1.528 0 0018.345 2c0 .398.152.78.424 1.06.272.282.64.44 1.024.44h3.262l-8.09 8.379-3.32-3.44a1.446 1.446 0 00-.47-.325 1.405 1.405 0 00-1.578.325l-9.173 9.5c-.202.21-.34.477-.396.768a1.55 1.55 0 00.082.867c.11.274.296.508.534.673.238.165.518.253.804.253z"/></symbol><symbol viewBox="0 0 16 16" id="checked" xmlns="http://www.w3.org/2000/svg"><circle cx="8" cy="8" r="8"/><path d="M7.375 9.666l-2.25-2.332L4 8.5 7.375 12 13 6.167 11.876 5l-4.5 4.666z"/></symbol><symbol viewBox="0 0 25 26" id="close2" xmlns="http://www.w3.org/2000/svg"><path d="M.413 2.145a1.225 1.225 0 01-.404-.88A1.252 1.252 0 01.36.36 1.198 1.198 0 011.245 0a1.178 1.178 0 01.862.412L12.27 10.82 22.452.412a1.194 1.194 0 01.852-.376 1.17 1.17 0 01.858.361 1.223 1.223 0 01.345.881 1.242 1.242 0 01-.377.867l-10.166 10.39 10.168 10.413a1.234 1.234 0 01-.006 1.71 1.18 1.18 0 01-.832.36 1.178 1.178 0 01-.84-.34L12.27 14.275 2.105 24.685a1.203 1.203 0 01-.863.42 1.177 1.177 0 01-.89-.358 1.228 1.228 0 01-.351-.91 1.25 1.25 0 01.411-.883l10.164-10.419L.413 2.145z"/></symbol><symbol viewBox="0 0 48 49" id="comment" xmlns="http://www.w3.org/2000/svg"><path d="M41.677 17.928H19.364a.703.703 0 100 1.406h22.313a.703.703 0 000-1.406zm.001 5.377H19.365a.703.703 0 000 1.406h22.313a.703.703 0 100-1.406zm0 5.375H19.365a.703.703 0 000 1.406h22.313a.703.703 0 100-1.406z"/><path d="M43.91 11.781H17.13a4.094 4.094 0 00-4.089 4.09V32.71a4.094 4.094 0 004.09 4.09H35.9c.2 0 .387.09.511.247l6.062 7.674a1.208 1.208 0 001.36.398c.5-.174.823-.628.823-1.156V36.73C46.553 36.375 48 34.7 48 32.71V15.87a4.094 4.094 0 00-4.09-4.089zm2.683 20.929a2.693 2.693 0 01-2.648 2.682.703.703 0 00-.694.703v7.341l-5.735-7.26a2.046 2.046 0 00-1.616-.783H17.13a2.686 2.686 0 01-2.683-2.683V15.87a2.686 2.686 0 012.684-2.683H43.91a2.686 2.686 0 012.683 2.684V32.71z"/><path d="M10.359 23.406a1.87 1.87 0 00-1.213.697l-4.83 6.114V24.09a.703.703 0 00-.694-.703 2.253 2.253 0 01-2.216-2.244V6.483a2.247 2.247 0 012.245-2.245h23.312a2.247 2.247 0 012.245 2.245v2.712a.703.703 0 001.406 0V6.483a3.655 3.655 0 00-3.65-3.651H3.65A3.655 3.655 0 000 6.483v14.659a3.668 3.668 0 002.91 3.574v6.222c0 .5.305.928.777 1.092a1.142 1.142 0 001.286-.376l5.277-6.68a.474.474 0 01.306-.176.703.703 0 10-.197-1.392z"/></symbol><symbol viewBox="0 0 48 49" id="edit" xmlns="http://www.w3.org/2000/svg"><g clip-path="url(#iclip0)"><path d="M35.967 25.27a.633.633 0 00-.634.634v15.2c0 .35-.283.633-.633.633H11.9a.633.633 0 01-.633-.633v-34.2c0-.35.283-.633.633-.633h22.8c.35 0 .633.283.633.633v3.8a.633.633 0 001.267 0v-3.8a1.9 1.9 0 00-1.9-1.9H11.9a1.9 1.9 0 00-1.9 1.9v34.2c0 1.05.85 1.9 1.9 1.9h22.8a1.9 1.9 0 001.9-1.9v-15.2a.633.633 0 00-.633-.633z"/><path d="M47.114 7.154a3.167 3.167 0 00-4.468-.01l-4.169 4.169-21.804 21.806c-.007.005-.009.014-.014.02a.628.628 0 00-.12.178l-.006.01-2.682 6.26a.633.633 0 00.832.83l6.258-2.681.01-.005a.613.613 0 00.179-.12c.006-.006.014-.008.02-.015l21.805-21.803 4.169-4.17a3.167 3.167 0 00-.01-4.469zM15.637 38.632l1.694-3.954 2.26 2.26-3.955 1.694zm5.066-2.379l-2.687-2.687 20.91-20.91 2.686 2.688-20.909 20.909zm21.805-21.805L39.82 11.76l1.034-1.035 2.688 2.688-1.035 1.034zm3.722-3.718l-.003-.001-1.792 1.792-2.684-2.69 1.791-1.789a1.9 1.9 0 112.688 2.688zm-15.33-.027H15.7a.633.633 0 000 1.267h15.2a.633.633 0 100-1.267zm.633 4.434a.633.633 0 00-.633-.633H15.7a.633.633 0 000 1.267h15.2c.35 0 .633-.284.633-.634zM15.7 18.305a.633.633 0 000 1.266h11.4a.633.633 0 000-1.266H15.7z"/></g><defs><clipPath id="iclip0"><path transform="translate(0 .004)" d="M0 0h48v48H0z"/></clipPath></defs></symbol><symbol viewBox="0 0 14 14" id="lang" xmlns="http://www.w3.org/2000/svg"><path d="M7 0C3.13 0 0 3.13 0 7s3.13 7 7 7 7-3.13 7-7-3.13-7-7-7zM4.887.953c-.37.519-.684 1.065-.948 1.638H2.351A6.348 6.348 0 014.887.953zM1.85 3.187h1.839a10.532 10.532 0 00-.705 3.515H.604A6.385 6.385 0 011.85 3.187zm0 7.626A6.385 6.385 0 01.604 7.298h2.38a10.46 10.46 0 00.715 3.515h-1.85zm.502.596h1.603c.266.573.581 1.125.945 1.643a6.37 6.37 0 01-2.55-1.642zm4.351 1.99a6.825 6.825 0 01-.879-.1 10.115 10.115 0 01-1.21-1.887h2.09v1.987zm0-2.585H4.34a9.963 9.963 0 01-.761-3.516h3.123v3.515zm0-4.112H3.58a10 10 0 01.756-3.515h2.367v3.515zm.003-4.111H4.607A9.78 9.78 0 015.823.704c.287-.054.581-.086.882-.1v1.987zm5.445.595a6.356 6.356 0 011.246 3.516h-2.38a10.474 10.474 0 00-.715-3.515h1.85zm-.5-.595h-1.604A10.544 10.544 0 009.1.948a6.36 6.36 0 012.55 1.643zM7.297.604c.298.014.592.049.879.1.475.587.881 1.22 1.21 1.887h-2.09V.604zm0 2.583H9.66a9.95 9.95 0 01.761 3.515H7.298V3.187zm0 4.11h3.123a10.036 10.036 0 01-.756 3.516H7.298V7.298zm-.003 6.099v-1.987h2.099a9.78 9.78 0 01-1.216 1.887 6.34 6.34 0 01-.882.1zm1.804-.344c.363-.518.678-1.07.941-1.643h1.612A6.391 6.391 0 019.1 13.052zm1.193-2.239a10.98 10.98 0 00.722-3.515h2.385a6.386 6.386 0 01-1.246 3.515h-1.86z"/></symbol><symbol viewBox="0 0 14 14" id="login" xmlns="http://www.w3.org/2000/svg"><g clip-path="url(#kclip0)"><path d="M9.283 7.456H.457a.457.457 0 010-.913h8.826a.457.457 0 010 .913z"/><path d="M6.847 9.893a.457.457 0 01-.323-.78l2.113-2.112L6.524 4.89a.457.457 0 01.646-.646l2.435 2.435a.457.457 0 010 .646L7.17 9.758a.453.453 0 01-.323.135z"/><path d="M7.305 13.696A6.661 6.661 0 011.073 9.45a.456.456 0 11.85-.334 5.753 5.753 0 005.382 3.667A5.79 5.79 0 0013.087 7a5.79 5.79 0 00-5.782-5.782 5.753 5.753 0 00-5.382 3.667.456.456 0 11-.85-.333A6.661 6.661 0 017.305.304 6.704 6.704 0 0114 7a6.704 6.704 0 01-6.695 6.696z"/></g><defs><clipPath id="kclip0"><path d="M0 0h14v14H0z"/></clipPath></defs></symbol><symbol viewBox="0 0 14 10" id="mail" xmlns="http://www.w3.org/2000/svg"><path d="M11.941 0H1.235C.555 0 0 .554 0 1.235v7.412c0 .681.554 1.235 1.235 1.235h10.706c.681 0 1.236-.554 1.236-1.235V1.235C13.177.555 12.622 0 11.94 0zm0 .824a.41.41 0 01.158.031l-5.51 4.777L1.076.855a.41.41 0 01.158-.031H11.94zm0 8.235H1.235a.412.412 0 01-.411-.412V1.725l5.494 4.763a.411.411 0 00.54 0l5.495-4.763v6.922a.412.412 0 01-.412.412z"/></symbol><symbol viewBox="0 0 12 12" id="phone" xmlns="http://www.w3.org/2000/svg"><path d="M2.423 7.977a12.73 12.73 0 004.234 3.317c.62.293 1.447.641 2.37.701.057.003.112.005.169.005.619 0 1.116-.214 1.522-.654a.052.052 0 00.01-.012c.144-.174.308-.331.48-.498.116-.112.236-.229.35-.348.53-.552.53-1.253-.005-1.788L10.06 7.206c-.254-.264-.557-.403-.876-.403-.318 0-.624.14-.885.4l-.89.89a4.732 4.732 0 00-.246-.129c-.1-.05-.192-.097-.274-.149-.81-.515-1.546-1.186-2.25-2.049-.356-.45-.594-.828-.76-1.213.233-.212.452-.433.663-.65l.229-.23c.268-.269.413-.58.413-.896 0-.315-.142-.626-.413-.895l-.741-.74c-.087-.088-.17-.172-.254-.26C3.611.715 3.44.54 3.27.383 3.014.133 2.713 0 2.395 0c-.316 0-.619.132-.885.385l-.93.93A1.91 1.91 0 00.01 2.54c-.047.594.063 1.226.346 1.989.435 1.181 1.092 2.278 2.067 3.449zM.617 2.59c.03-.33.157-.607.396-.845L1.938.82c.144-.14.303-.212.457-.212.152 0 .306.072.448.217.166.154.323.315.492.487l.259.263.74.741c.155.155.234.311.234.465 0 .155-.08.311-.233.465-.077.077-.154.157-.232.234-.23.234-.447.455-.686.667l-.012.012c-.207.206-.174.403-.125.552l.008.02c.191.46.457.898.873 1.42.746.92 1.531 1.633 2.397 2.183.107.07.221.124.328.179.1.05.191.097.273.15l.028.014a.52.52 0 00.24.062.527.527 0 00.371-.169l.93-.93c.145-.144.301-.221.455-.221.19 0 .344.117.44.221l1.5 1.497c.298.298.296.622-.007.937a8.383 8.383 0 01-.331.331c-.174.17-.356.343-.52.54-.286.308-.627.452-1.067.452-.042 0-.087-.002-.129-.005-.816-.052-1.574-.37-2.143-.641a12.095 12.095 0 01-4.031-3.158C1.968 6.477 1.343 5.438.931 4.324.675 3.64.578 3.091.617 2.591z"/></symbol><symbol viewBox="0 0 48 49" id="phone2" xmlns="http://www.w3.org/2000/svg"><path d="M43.9 35.406l-8.502-5.67a2.481 2.481 0 00-3.322.54l-2.477 3.184c-.318.42-.897.541-1.357.285l-.471-.26c-1.562-.85-3.505-1.91-7.42-5.826-3.914-3.917-4.976-5.861-5.827-7.42l-.259-.471a1.06 1.06 0 01.28-1.362l3.182-2.476a2.483 2.483 0 00.54-3.322l-5.669-8.502a2.468 2.468 0 00-3.327-.749L5.716 5.493A5.015 5.015 0 003.429 8.46c-1.28 4.665-.317 12.715 11.541 24.575 9.434 9.432 16.456 11.969 21.283 11.969 1.11.005 2.217-.14 3.29-.43a5.01 5.01 0 002.968-2.287l2.137-3.553a2.469 2.469 0 00-.748-3.328zm-.458 2.61l-2.133 3.555a3.617 3.617 0 01-2.135 1.655c-4.306 1.182-11.829.203-23.213-11.182C4.576 20.66 3.597 13.137 4.779 8.831c.256-.9.85-1.666 1.657-2.138L9.99 4.56a1.07 1.07 0 011.444.325l3.08 4.624 2.585 3.877c.31.468.207 1.095-.234 1.442l-3.183 2.475a2.45 2.45 0 00-.649 3.145l.253.459c.895 1.64 2.007 3.681 6.067 7.741 4.06 4.06 6.101 5.172 7.741 6.067l.46.253a2.45 2.45 0 003.144-.649l2.476-3.183a1.078 1.078 0 011.442-.233l8.5 5.67c.478.316.62.953.325 1.443zM26.8 10.005c6.568.008 11.891 5.33 11.899 11.9a.7.7 0 001.4 0c-.009-7.342-5.958-13.291-13.3-13.3a.7.7 0 100 1.4z"/><path d="M26.8 14.204a7.709 7.709 0 017.699 7.7.7.7 0 001.4 0 9.11 9.11 0 00-9.1-9.1.7.7 0 100 1.4z"/><path d="M26.8 18.408a3.504 3.504 0 013.5 3.5.7.7 0 101.4 0 4.905 4.905 0 00-4.9-4.9.7.7 0 100 1.4z"/></symbol><symbol viewBox="0 0 21 20" id="search" xmlns="http://www.w3.org/2000/svg"><path d="M8.925 0C4.069 0 .117 3.951.117 8.808c0 4.856 3.952 8.807 8.808 8.807 4.857 0 8.808-3.95 8.808-8.807S13.782 0 8.925 0zm0 15.99c-3.96 0-7.182-3.223-7.182-7.182 0-3.96 3.222-7.182 7.182-7.182 3.96 0 7.182 3.222 7.182 7.182 0 3.96-3.222 7.181-7.182 7.181z"/><path d="M19.88 18.612l-4.662-4.661a.813.813 0 10-1.15 1.15l4.662 4.66a.81.81 0 001.15 0 .813.813 0 000-1.15z"/></symbol></svg>