<svg width="36" height="36" viewBox="0 0 36 36" fill="none" xmlns="http://www.w3.org/2000/svg">
<path d="M26.6532 25.6589C26.7853 25.3835 26.8594 25.0753 26.8594 24.75C26.8594 23.8334 26.2715 23.0518 25.4531 22.7616V19.125C25.4531 18.7367 25.1383 18.4219 24.75 18.4219C24.3617 18.4219 24.0469 18.7367 24.0469 19.125V22.7616C23.2285 23.0518 22.6406 23.8333 22.6406 24.75C22.6406 25.9131 23.5869 26.8594 24.75 26.8594C25.0753 26.8594 25.3834 26.7853 25.6589 26.6532L28.4716 29.4659C28.7461 29.7405 29.1914 29.7405 29.466 29.4659C29.7406 29.1914 29.7406 28.7462 29.466 28.4715L26.6532 25.6589Z" fill="#1C1C28"/>
<path d="M27.5625 13.8559V2.10938C27.5625 1.72104 27.2477 1.40625 26.8594 1.40625H22.9219V0.703125C22.9219 0.314789 22.6071 0 22.2188 0C21.8304 0 21.5156 0.314789 21.5156 0.703125V1.40625H18.7031V0.703125C18.7031 0.314789 18.3883 0 18 0C17.6117 0 17.2969 0.314789 17.2969 0.703125V1.40625H14.4844V0.703125C14.4844 0.314789 14.1696 0 13.7812 0C13.3929 0 13.0781 0.314789 13.0781 0.703125V1.40625H10.2656V0.703125C10.2656 0.314789 9.95084 0 9.5625 0C9.17416 0 8.85938 0.314789 8.85938 0.703125V1.40625H6.04688V0.703125C6.04688 0.314789 5.73209 0 5.34375 0C4.95541 0 4.64062 0.314789 4.64062 0.703125V1.40625H0.703125C0.314789 1.40625 0 1.72104 0 2.10938V26.8594C0 27.2477 0.314789 27.5625 0.703125 27.5625H13.8559C15.108 32.4095 19.5195 36 24.75 36C30.9497 36 36 30.9545 36 24.75C36 19.5208 32.4094 15.108 27.5625 13.8559ZM1.40625 2.8125H4.64062V4.92188C4.64062 5.31021 4.95541 5.625 5.34375 5.625C5.73209 5.625 6.04688 5.31021 6.04688 4.92188V2.8125H8.85938V4.92188C8.85938 5.31021 9.17416 5.625 9.5625 5.625C9.95084 5.625 10.2656 5.31021 10.2656 4.92188V2.8125H13.0781V4.92188C13.0781 5.31021 13.3929 5.625 13.7812 5.625C14.1696 5.625 14.4844 5.31021 14.4844 4.92188V2.8125H17.2969V4.92188C17.2969 5.31021 17.6117 5.625 18 5.625C18.3883 5.625 18.7031 5.31021 18.7031 4.92188V2.8125H21.5156V4.92188C21.5156 5.31021 21.8304 5.625 22.2188 5.625C22.6071 5.625 22.9219 5.31021 22.9219 4.92188V2.8125H26.1562V7.03125H1.40625V2.8125ZM13.5878 26.1562H1.40625V8.4375H26.1562V13.5878C25.6955 13.53 25.2262 13.5 24.75 13.5C18.5685 13.5 13.5 18.5202 13.5 24.75C13.5 25.2262 13.53 25.6955 13.5878 26.1562ZM33.8906 25.4524L34.5684 25.4531C34.4133 27.6394 33.5417 29.6307 32.1869 31.1925L31.7106 30.7162C31.436 30.4416 30.9908 30.4416 30.7162 30.7162C30.4416 30.9907 30.4416 31.4359 30.7162 31.7106L31.1925 32.1869C29.6307 33.5417 27.6393 34.4133 25.4531 34.5684V33.8906C25.4531 33.5023 25.1383 33.1875 24.75 33.1875C24.3617 33.1875 24.0469 33.5023 24.0469 33.8906V34.5684C21.8606 34.4133 19.8693 33.5417 18.3075 32.1869L18.7838 31.7106C19.0584 31.436 19.0584 30.9908 18.7838 30.7162C18.5093 30.4416 18.0641 30.4416 17.7894 30.7162L17.3131 31.1925C15.9583 29.6307 15.0867 27.6393 14.9316 25.4531H15.6094C15.9977 25.4531 16.3125 25.1383 16.3125 24.75C16.3125 24.3617 15.9977 24.0469 15.6094 24.0469H14.9316C15.0867 21.8606 15.9583 19.8693 17.3131 18.3075L17.7894 18.7838C18.064 19.0584 18.5092 19.0584 18.7838 18.7838C19.0584 18.5093 19.0584 18.0641 18.7838 17.7894L18.3075 17.3131C19.8693 15.9583 21.8607 15.0867 24.0469 14.9316V15.6094C24.0469 15.9977 24.3617 16.3125 24.75 16.3125C25.1383 16.3125 25.4531 15.9977 25.4531 15.6094V14.9316C27.6394 15.0867 29.6307 15.9583 31.1925 17.3131L30.7162 17.7894C30.4416 18.064 30.4416 18.5092 30.7162 18.7838C30.9907 19.0584 31.4359 19.0584 31.7106 18.7838L32.1869 18.3075C33.5417 19.8693 34.4133 21.8607 34.5684 24.0469H33.8906C33.5023 24.0469 33.1875 24.3617 33.1875 24.75C33.1875 25.1383 33.5023 25.4524 33.8906 25.4524Z" fill="#1C1C28"/>
</svg>
