<svg width="48" height="48" viewBox="0 0 48 48" fill="none" xmlns="http://www.w3.org/2000/svg">
<circle cx="24" cy="24" r="24" fill="#56C1EE"/>
<g clip-path="url(#clip0)">
<path d="M20.6681 30.5383C21.9219 30.5787 23.1714 30.3763 24.3427 29.943C25.5141 29.5096 26.5835 28.8542 27.4878 28.0153C28.3921 27.1765 29.113 26.1712 29.6077 25.059C30.1024 23.9468 30.3611 22.7502 30.3683 21.54C30.9429 20.854 31.3696 20.0641 31.6232 19.2168C31.6422 19.1498 31.6406 19.079 31.6188 19.0129C31.597 18.9468 31.5559 18.8882 31.5003 18.8441C31.4448 18.8 31.3772 18.7723 31.3057 18.7644C31.2343 18.7566 31.162 18.7688 31.0975 18.7996C30.7969 18.9392 30.4585 18.9843 30.1299 18.9285C29.8013 18.8728 29.4992 18.7189 29.266 18.4887C28.9683 18.1743 28.6083 17.9207 28.2072 17.7429C27.806 17.5651 27.372 17.4669 26.9308 17.4539C26.4896 17.4409 26.0501 17.5135 25.6385 17.6674C25.2269 17.8213 24.8515 18.0533 24.5346 18.3497C24.1006 18.7551 23.7828 19.262 23.6119 19.821C23.441 20.3801 23.423 20.9722 23.5595 21.54C20.7189 21.7036 18.7687 20.4029 17.2085 18.6196C17.1617 18.5684 17.1003 18.5315 17.0321 18.5133C16.9638 18.4952 16.8915 18.4966 16.8241 18.5174C16.7567 18.5383 16.697 18.5776 16.6523 18.6306C16.6076 18.6836 16.5799 18.748 16.5726 18.816C16.2754 20.4065 16.4898 22.0468 17.187 23.5164C17.8842 24.986 19.0309 26.2146 20.473 27.0371C19.5061 28.1069 18.1482 28.7751 16.6828 28.9022C16.6043 28.9148 16.5318 28.9507 16.4755 29.005C16.4192 29.0592 16.3819 29.1291 16.3689 29.2048C16.3558 29.2806 16.3676 29.3584 16.4026 29.4273C16.4376 29.4962 16.4941 29.5529 16.5641 29.5893C17.839 30.204 19.2429 30.5286 20.6681 30.5383" fill="white"/>
</g>
<defs>
<clipPath id="clip0">
<rect width="15.2727" height="15.2727" fill="white" transform="translate(16.3636 16.3626)"/>
</clipPath>
</defs>
</svg>
