<svg width="28" height="28" viewBox="0 0 28 28" fill="none" xmlns="http://www.w3.org/2000/svg">
<g clip-path="url(#clip0)">
<path d="M24.2727 5.00072C21.8691 2.59716 18.6734 1.27344 15.2742 1.27344C14.9443 1.27344 14.6768 1.54089 14.6768 1.87081V5.08702C14.6768 5.41695 14.9443 5.6844 15.2742 5.6844C19.859 5.6844 23.589 9.41435 23.589 13.9991C23.589 18.584 19.859 22.3139 15.2742 22.3139C11.0689 22.3139 7.5624 19.1856 7.02966 15.0835H9.12957C9.13003 15.0835 9.13031 15.0836 9.13071 15.0835C9.46063 15.0835 9.72809 14.816 9.72809 14.4861C9.72809 14.3219 9.66181 14.1731 9.55451 14.0651L5.26791 9.2633C5.15453 9.13632 4.99244 9.06372 4.82227 9.06372C4.8213 9.06372 4.82034 9.06372 4.81943 9.06372C4.64824 9.06458 4.48564 9.13876 4.37282 9.26757L0.147952 14.0927C-0.0064555 14.2691 -0.0434928 14.5195 0.0533389 14.733C0.150171 14.9465 0.36295 15.0836 0.597405 15.0836H2.59491C2.85395 18.157 4.2084 21.0081 6.44599 23.1643C8.82884 25.4604 11.964 26.725 15.2741 26.725C18.6734 26.725 21.8691 25.4013 24.2726 22.9977C26.6762 20.5941 28 17.3984 28 13.9992C28 10.6 26.6763 7.40427 24.2727 5.00072ZM15.2742 25.5303C9.05908 25.5303 3.99852 20.6688 3.75331 14.4626C3.74062 14.1422 3.47715 13.8889 3.15639 13.8889H1.91448L4.82659 10.5631L7.79555 13.8889H6.37545C6.21142 13.8889 6.05463 13.9563 5.94187 14.0754C5.82905 14.1944 5.77016 14.3546 5.77898 14.5183C6.05059 19.5597 10.2214 23.5087 15.2742 23.5087C20.5178 23.5087 24.7838 19.2428 24.7838 13.9992C24.7838 8.95625 20.838 4.81758 15.8716 4.50825V2.48349C21.9535 2.79521 26.8053 7.84127 26.8053 13.9992C26.8053 20.3575 21.6325 25.5303 15.2742 25.5303Z" fill="black"/>
<path d="M14.531 14.5438V19.0614H13.0898C12.7599 19.0614 12.4925 19.3288 12.4925 19.6587C12.4925 19.9887 12.7599 20.2561 13.0898 20.2561H14.531V20.9973C14.531 21.3272 14.7985 21.5947 15.1284 21.5947C15.4583 21.5947 15.7258 21.3272 15.7258 20.9973V20.2029C17.3314 19.9193 18.5552 18.5149 18.5552 16.8291C18.5552 15.1434 17.3314 13.739 15.7258 13.4554V8.93774L16.9842 8.93768C17.3141 8.93768 17.5816 8.67023 17.5816 8.3403C17.5816 8.01038 17.3141 7.74293 16.9842 7.74293L15.7258 7.74299V7.00167C15.7258 6.67175 15.4583 6.4043 15.1284 6.4043C14.7985 6.4043 14.531 6.67175 14.531 7.00167V7.79618C12.9253 8.07979 11.7014 9.48419 11.7014 11.1699C11.7014 12.8558 12.9253 14.2602 14.531 14.5438ZM17.3605 16.8292C17.3605 17.8531 16.6673 18.7176 15.7258 18.9796V14.6789C16.6673 14.9407 17.3605 15.8053 17.3605 16.8292ZM14.531 9.01961V13.3204C13.5894 13.0585 12.8962 12.1939 12.8962 11.1699C12.8962 10.146 13.5894 9.28154 14.531 9.01961Z" fill="black"/>
</g>
<defs>
<clipPath id="clip0">
<rect width="28" height="28" fill="white"/>
</clipPath>
</defs>
</svg>
