<svg width="32" height="33" viewBox="0 0 32 33" fill="none" xmlns="http://www.w3.org/2000/svg">
<g clip-path="url(#clip0)">
<path d="M22.245 17.8534C23.6323 16.1856 25.7287 13.665 25.7287 10.635C25.7287 7.76351 24.7137 5.09691 22.8707 3.12651C20.9873 1.11284 18.3919 0.00390625 15.5628 0.00390625C12.7064 0.00390625 10.0483 1.06384 8.07813 2.98844C6.09313 4.92751 5 7.56057 5 10.4026C5 12.7844 6.62733 14.9006 7.93493 16.6009C8.58593 17.4474 9.2008 18.247 9.457 18.8788C10.1587 20.6037 9.1484 22.6418 9.1388 22.6608C9.0668 22.8018 9.04967 22.9611 9.08367 23.111V26.1655C9.08367 26.5337 9.38213 26.8322 9.75033 26.8322H10.0687V29.367C10.0687 29.7352 10.3672 30.0337 10.7354 30.0337H11.2279H12.2852V31.3372C12.2852 31.7054 12.5837 32.0039 12.9519 32.0039H18.1235C18.4917 32.0039 18.7902 31.7054 18.7902 31.3372V30.0337H20.0937C20.4619 30.0337 20.7604 29.7352 20.7604 29.367V26.8322H21.0788C21.4469 26.8322 21.7455 26.5337 21.7455 26.1655V22.991C21.7459 22.982 21.7469 22.9731 21.7469 22.964C21.7469 22.847 21.7168 22.7372 21.6639 22.6418C21.3239 21.912 20.6611 19.9138 21.4285 18.8698C21.6423 18.578 21.9217 18.2422 22.245 17.8534ZM17.4569 30.6706H13.6186V30.0337H17.4569V30.6706ZM19.4272 28.7004H18.3699H18.1237H12.952H11.4022V26.8322H19.4272V28.7004ZM20.4122 25.4988H20.0938H10.7355H10.4171V23.6306H20.4122V25.4988ZM20.3536 18.0808C19.4101 19.3647 19.7593 21.1926 20.1107 22.2974H17.0663V18.315L20.7649 11.7366C20.9453 11.4157 20.8314 11.0092 20.5105 10.8288C20.1897 10.6484 19.7831 10.7622 19.6027 11.0832L15.8186 17.8137C15.7625 17.9135 15.7331 18.026 15.7331 18.1404V22.2974H14.3574V18.1404C14.3574 18.0262 14.3281 17.914 14.2722 17.8143L10.3645 10.8471C10.1844 10.526 9.77813 10.4116 9.457 10.5918C9.13587 10.7719 9.02153 11.1782 9.20167 11.4993L13.0241 18.3146V22.2973H10.7064C11.0048 21.3416 11.28 19.8212 10.6924 18.3769C10.3683 17.5778 9.69973 16.7084 8.99193 15.788C7.7458 14.1676 6.3334 12.331 6.3334 10.4025C6.3334 5.31917 10.3875 1.33717 15.5629 1.33717C20.5982 1.33717 24.3954 5.33431 24.3954 10.6349C24.3954 13.183 22.5601 15.3896 21.2199 17.0008C20.8965 17.3896 20.5911 17.7568 20.3536 18.0808Z" fill="#750E6C"/>
<path d="M18.9633 9.38491C18.6868 9.14171 18.2656 9.16864 18.0223 9.44497L16.7578 10.882L15.7449 9.63231C15.6245 9.48364 15.4459 9.39391 15.2547 9.38597C15.0638 9.37784 14.8782 9.45257 14.7457 9.59071L13.4829 10.908L12.4782 9.62164C12.2516 9.33144 11.8326 9.27991 11.5425 9.50657C11.2523 9.73317 11.2008 10.1522 11.4274 10.4423L12.906 12.3354C13.0251 12.4878 13.2045 12.581 13.3977 12.5908C13.4089 12.5914 13.4202 12.5917 13.4314 12.5917C13.6126 12.5917 13.7866 12.5179 13.9126 12.3864L15.185 11.059L16.2189 12.3346C16.3425 12.4872 16.527 12.5774 16.7233 12.5814C16.9197 12.5864 17.1075 12.5026 17.2372 12.3553L19.0232 10.3257C19.2665 10.0494 19.2396 9.62811 18.9633 9.38491Z" fill="#750E6C"/>
</g>
<defs>
<clipPath id="clip0">
<rect width="32" height="32" fill="white" transform="translate(0 0.00390625)"/>
</clipPath>
</defs>
</svg>
