<svg width="32" height="33" viewBox="0 0 32 33" fill="none" xmlns="http://www.w3.org/2000/svg">
<g clip-path="url(#clip0)">
<path d="M30.672 30.9064L25.4895 24.786C27.7808 22.4568 29.2136 19.4446 29.5702 16.1447C29.9886 12.2709 28.8737 8.46916 26.4306 5.43983C23.6469 1.98524 19.5055 0.00390625 15.0682 0.00390625C11.7591 0.00390625 8.51448 1.1503 5.93242 3.2317C2.90056 5.67256 1.00049 9.14869 0.582228 13.0198C0.163962 16.8916 1.27843 20.6941 3.72035 23.7265C6.49975 27.1793 10.6402 29.1596 15.08 29.1596C18.3909 29.1596 21.6377 28.0141 24.2226 25.9339C24.3202 25.8553 24.4165 25.7755 24.5118 25.6947L29.6544 31.768C29.7863 31.9238 29.9743 32.0039 30.1636 32.0039C30.3158 32.0039 30.4688 31.952 30.594 31.846C30.875 31.608 30.9099 31.1873 30.672 30.9064ZM23.3864 24.8953C21.0378 26.7854 18.0879 27.8262 15.08 27.8262C11.0459 27.8262 7.28401 26.0273 4.75889 22.8903C2.54036 20.1352 1.52783 16.6807 1.90789 13.163C2.28789 9.64602 4.01409 6.48783 6.76888 4.27003C9.11508 2.37877 12.0625 1.33724 15.0682 1.33724C19.1 1.33724 22.863 3.1375 25.3926 6.27663C27.6118 9.02855 28.6246 12.4823 28.2444 16.0015C27.8644 19.5193 26.139 22.6779 23.3864 24.8953Z" fill="#750E6C"/>
<path d="M20.4582 17.0485C19.701 16.3572 18.8177 15.8162 17.8752 15.4509C19.6408 14.4284 20.8312 12.5178 20.8312 10.3343C20.8312 7.07855 18.1819 4.42969 14.9254 4.42969C11.6684 4.42969 9.0186 7.07848 9.0186 10.3343C9.0186 12.5549 10.2501 14.4929 12.0656 15.502C11.1714 15.8658 10.3339 16.3884 9.61126 17.048C8.05453 18.469 7.19727 20.328 7.19727 22.2826V24.558C7.19727 24.9262 7.49573 25.2247 7.86393 25.2247H22.2054C22.5736 25.2247 22.8721 24.9262 22.8721 24.558V22.2826C22.872 20.3284 22.0147 18.4695 20.4582 17.0485ZM10.3609 10.6095C10.3555 10.5184 10.3519 10.4267 10.3519 10.3343C10.3519 7.81361 12.4035 5.76295 14.9254 5.76295C17.3802 5.76295 19.3886 7.70715 19.4928 10.1361L13.1126 7.81941C12.8407 7.72061 12.536 7.80861 12.3585 8.03715L10.3609 10.6095ZM14.2013 23.8914H8.53046V22.2825C8.53046 19.6465 10.5702 17.2762 13.2125 16.5051C13.3297 16.6076 13.4827 16.6702 13.6507 16.6702H14.2013V23.8914ZM10.7743 12.2511L13.1138 9.23834L19.3463 11.5015C18.8292 13.4602 17.0434 14.9087 14.9253 14.9087C13.0877 14.9088 11.5007 13.8185 10.7743 12.2511ZM21.5386 23.8913H15.5346V16.6701H16.1668C16.3626 16.6701 16.5381 16.5853 16.66 16.4508C19.3971 17.1593 21.5386 19.5815 21.5386 22.2824V23.8913Z" fill="#750E6C"/>
</g>
<defs>
<clipPath id="clip0">
<rect width="32" height="32" fill="white" transform="translate(0 0.00390625)"/>
</clipPath>
</defs>
</svg>
