<svg width="28" height="28" viewBox="0 0 28 28" fill="none" xmlns="http://www.w3.org/2000/svg">
<path d="M22.1847 0H5.81504C4.88414 0 4.12671 0.757371 4.12671 1.68833V26.3117C4.12671 27.2426 4.88408 28 5.81504 28H19.1922C19.3481 28 19.4976 27.938 19.6079 27.8279L23.7009 23.7348C23.8111 23.6245 23.873 23.475 23.873 23.3192V1.68833C23.873 0.757371 23.1157 0 22.1847 0ZM19.78 25.9932V24.4197C19.78 24.137 20.0101 23.9069 20.2929 23.9069H21.8663L19.78 25.9932ZM5.81504 1.17552H22.1847C22.4675 1.17552 22.6975 1.40553 22.6975 1.68833V3.5049H5.30223V1.68833C5.30223 1.40553 5.5323 1.17552 5.81504 1.17552ZM5.30223 26.3117V4.68042H22.6975V22.7314H20.2929C19.3619 22.7314 18.6045 23.4887 18.6045 24.4197V26.8245H5.81504C5.5323 26.8245 5.30223 26.5944 5.30223 26.3117Z" fill="#4F064B"/>
<path d="M7.72204 9.03196H15.4189C15.7435 9.03196 16.0066 8.76882 16.0066 8.44421C16.0066 8.11959 15.7435 7.85645 15.4189 7.85645H7.72204C7.39743 7.85645 7.13428 8.11959 7.13428 8.44421C7.13428 8.76882 7.39743 9.03196 7.72204 9.03196Z" fill="#4F064B"/>
<path d="M17.7699 9.03196H19.7571C20.0817 9.03196 20.3448 8.76882 20.3448 8.44421C20.3448 8.11959 20.0817 7.85645 19.7571 7.85645H17.7699C17.4453 7.85645 17.1821 8.11959 17.1821 8.44421C17.1821 8.76882 17.4453 9.03196 17.7699 9.03196Z" fill="#4F064B"/>
<path d="M7.72204 13.699H15.4189C15.7435 13.699 16.0066 13.4358 16.0066 13.1112C16.0066 12.7866 15.7435 12.5234 15.4189 12.5234H7.72204C7.39743 12.5234 7.13428 12.7866 7.13428 13.1112C7.13428 13.4358 7.39743 13.699 7.72204 13.699Z" fill="#4F064B"/>
<path d="M17.7699 13.699H19.7571C20.0817 13.699 20.3448 13.4358 20.3448 13.1112C20.3448 12.7866 20.0817 12.5234 19.7571 12.5234H17.7699C17.4453 12.5234 17.1821 12.7866 17.1821 13.1112C17.1821 13.4358 17.4453 13.699 17.7699 13.699Z" fill="#4F064B"/>
<path d="M16.0066 17.7782C16.0066 17.4536 15.7435 17.1904 15.4189 17.1904H7.72204C7.39743 17.1904 7.13428 17.4536 7.13428 17.7782C7.13428 18.1028 7.39743 18.366 7.72204 18.366H15.4189C15.7435 18.366 16.0066 18.1028 16.0066 17.7782Z" fill="#4F064B"/>
<path d="M17.7699 18.366H19.7571C20.0817 18.366 20.3448 18.1028 20.3448 17.7782C20.3448 17.4536 20.0817 17.1904 19.7571 17.1904H17.7699C17.4453 17.1904 17.1821 17.4536 17.1821 17.7782C17.1821 18.1028 17.4453 18.366 17.7699 18.366Z" fill="#4F064B"/>
<path d="M19.7573 21.7253C20.0819 21.7253 20.345 21.4622 20.345 21.1376C20.345 20.813 20.0819 20.5498 19.7573 20.5498H14.1595C13.8349 20.5498 13.5718 20.813 13.5718 21.1376C13.5718 21.4622 13.8349 21.7253 14.1595 21.7253H19.7573Z" fill="#4F064B"/>
</svg>
