<svg width="32" height="33" viewBox="0 0 32 33" fill="none" xmlns="http://www.w3.org/2000/svg">
<g clip-path="url(#clip0)">
<path d="M30.6633 16.7057L27.584 8.29289C27.5058 8.07916 27.324 7.92009 27.1017 7.87109C26.8795 7.82196 26.6475 7.88969 26.4866 8.05062L19.9325 14.6042C19.0659 13.8766 18.0642 13.2897 17.0258 12.8841C19.3847 11.8377 21.0343 9.47262 21.0343 6.72903C21.0344 3.02077 18.0173 0.00390625 14.3088 0.00390625C10.599 0.00390625 7.58082 3.02077 7.58082 6.72903C7.58082 9.31155 9.04309 11.5586 11.1827 12.6864C9.76462 13.1583 8.47802 14.0059 7.41669 15.1854C7.23856 15.1641 7.05836 15.1519 6.87616 15.1519C5.68036 15.1519 4.5565 15.6178 3.71223 16.4633L3.3539 16.8213C2.50823 17.6664 2.0427 18.7908 2.04297 19.9873C2.04324 21.1835 2.5089 22.3071 3.3537 23.1507L10.5338 30.3319L10.8921 30.6904C11.7372 31.5372 12.8611 32.0037 14.0567 32.0039C14.0569 32.0039 14.0571 32.0039 14.0574 32.0039C15.2531 32.0039 16.3775 31.5375 17.2227 30.6911L17.5819 30.3322C17.5861 30.3282 17.5901 30.324 17.5941 30.3198L30.5085 17.4063C30.6922 17.2227 30.7525 16.9495 30.6633 16.7057ZM18.9851 15.5516L14.7247 19.8116V13.8629H15.7473V13.863C16.8881 14.1866 18.0343 14.7773 18.9851 15.5516ZM14.3088 1.33724C17.2821 1.33724 19.7011 3.75596 19.7011 6.72903C19.7011 6.92423 19.6901 7.11676 19.6698 7.30669L16.3827 4.06916C16.1999 3.88903 15.9299 3.8299 15.6886 3.91703L8.92849 6.35703C9.12055 3.55703 11.4595 1.33724 14.3088 1.33724ZM9.01135 7.74456L15.7463 5.3137L19.287 8.80102C18.4735 10.7509 16.5487 12.125 14.3088 12.125C11.6813 12.1251 9.48782 10.236 9.01135 7.74456ZM11.9547 13.8461C12.0021 13.8568 12.0514 13.863 12.1021 13.863H13.3914V19.8137L10.0408 16.4638C9.69015 16.1127 9.29102 15.8283 8.85915 15.6143C9.75875 14.7624 10.8122 14.1627 11.9547 13.8461ZM16.2803 29.7481L16.2799 29.7484C15.686 30.3432 14.8968 30.6706 14.0575 30.6706C14.0573 30.6706 14.0571 30.6706 14.0569 30.6706C13.2179 30.6705 12.4291 30.343 11.8355 29.7482L11.4769 29.3894V29.3893H11.4768L4.2963 22.2077C3.70323 21.6155 3.37657 20.8269 3.37637 19.9871C3.37617 19.147 3.7029 18.3577 4.29643 17.7645L4.65516 17.406C5.2481 16.8123 6.03683 16.4853 6.87616 16.4853C7.71556 16.4853 8.50436 16.8123 9.09769 17.4063L13.5857 21.8935C13.8248 22.1325 14.1999 22.1513 14.4613 21.9513C14.4667 21.9471 14.4725 21.9435 14.4779 21.9391C14.4865 21.9322 14.4944 21.9242 14.5027 21.9167C14.5113 21.909 14.5203 21.9017 14.5285 21.8933L26.6909 9.73189L29.2649 16.7643L16.2803 29.7481Z" fill="#750E6C"/>
<path d="M6.73792 19.0978C6.47772 18.8373 6.05558 18.8372 5.79512 19.0973C5.53465 19.3575 5.53438 19.7796 5.79465 20.0401L8.50238 22.7506C8.63258 22.8809 8.80331 22.9461 8.97404 22.9461C9.14458 22.9461 9.31504 22.8811 9.44518 22.7511C9.70564 22.4909 9.70591 22.0688 9.44564 21.8083L6.73792 19.0978Z" fill="#750E6C"/>
</g>
<defs>
<clipPath id="clip0">
<rect width="32" height="32" fill="white" transform="translate(0 0.00390625)"/>
</clipPath>
</defs>
</svg>
