<svg width="28" height="28" viewBox="0 0 28 28" fill="none" xmlns="http://www.w3.org/2000/svg">
<path d="M17 8C16.448 8 16 7.50222 16 6.88889V5.22222H12V6.88889C12 7.50222 11.552 8 11 8C10.448 8 10 7.50222 10 6.88889V5.22222C10 3.99667 10.897 3 12 3H16C17.103 3 18 3.99667 18 5.22222V6.88889C18 7.50222 17.552 8 17 8Z" fill="url(#paint0_linear)"/>
<path d="M14.7692 17.9846C14.5742 18.0588 14.2925 18.1118 14 18.1118C13.7075 18.1118 13.4258 18.0588 13.1658 17.9634L1 14V22.0857C1 23.6965 2.3325 25 3.97917 25H24.0208C25.6675 25 27 23.6965 27 22.0857V14L14.7692 17.9846Z" fill="url(#paint1_linear)"/>
<path d="M27 9.05556V11.6L14.26 15.9556C14.1733 15.9889 14.0867 16 14 16C13.9133 16 13.8267 15.9889 13.74 15.9556L1 11.6V9.05556C1 7.36667 2.3325 6 3.97917 6H24.0208C25.6675 6 27 7.36667 27 9.05556Z" fill="url(#paint2_linear)"/>
<defs>
<linearGradient id="paint0_linear" x1="7.41593" y1="4.61504" x2="9.87618" y2="10.7084" gradientUnits="userSpaceOnUse">
<stop stop-color="#5B8DEF"/>
<stop offset="1" stop-color="#0063F7"/>
</linearGradient>
<linearGradient id="paint1_linear" x1="-7.39823" y1="17.5531" x2="-3.43324" y2="32.0601" gradientUnits="userSpaceOnUse">
<stop stop-color="#5B8DEF"/>
<stop offset="1" stop-color="#0063F7"/>
</linearGradient>
<linearGradient id="paint2_linear" x1="-7.39823" y1="9.23009" x2="-4.08136" y2="22.5793" gradientUnits="userSpaceOnUse">
<stop stop-color="#5B8DEF"/>
<stop offset="1" stop-color="#0063F7"/>
</linearGradient>
</defs>
</svg>
