<svg width="28" height="28" viewBox="0 0 28 28" fill="none" xmlns="http://www.w3.org/2000/svg">
<path d="M22.0393 3.43139C20.8499 3.43139 19.744 3.78361 18.8146 4.38417C17.7776 1.83994 15.2838 0.046875 12.372 0.046875C9.13868 0.046875 6.42849 2.25486 5.64598 5.24105C5.48923 5.22692 5.32757 5.21647 5.1659 5.21647C2.31187 5.21647 0 7.53018 0 10.3848C0 13.2376 2.2965 15.5507 5.15053 15.5507C5.2495 15.5507 5.40563 15.5507 5.52673 15.5507V12.3906C5.52673 12.1004 5.64229 11.8226 5.8476 11.6179L10.3416 7.146C10.5457 6.94253 10.8223 6.8282 11.11 6.8282H19.2135C22.0276 6.8282 24.3383 9.12286 24.3383 11.9375V14.9772C26.4694 13.9888 28 11.8023 28 9.38533C27.9988 6.09609 25.3273 3.43139 22.0393 3.43139Z" fill="url(#paint0_linear)"/>
<path d="M19.2127 8.5332H12.3822C12.0595 8.5332 11.7497 8.66167 11.5223 8.89157L7.58207 12.8613C7.35771 13.0887 7.23047 13.3954 7.23047 13.7151V24.5104C7.23047 26.4012 8.76967 27.9539 10.6599 27.9539H19.2127C21.1029 27.9539 22.6323 26.4024 22.6323 24.5104V11.9374C22.6323 10.0478 21.1029 8.5332 19.2127 8.5332ZM20.6241 19.9168H16.5818C16.0932 19.9168 15.6936 20.2948 15.6936 20.7829V23.0345C15.6936 23.5226 16.0932 23.935 16.5818 23.935H20.6241V24.5104C20.6241 25.2923 19.9952 25.9451 19.2127 25.9451H10.6599C9.87858 25.9451 9.23991 25.2929 9.23991 24.5104V14.8652H11.2057C12.8961 14.8652 14.2921 13.5049 14.2921 11.8144V10.542H19.2121C19.9934 10.542 20.6235 11.1555 20.6235 11.938L20.6241 19.9168Z" fill="url(#paint1_linear)"/>
<defs>
<linearGradient id="paint0_linear" x1="-9.04425" y1="5.37362" x2="-1.45819" y2="25.3117" gradientUnits="userSpaceOnUse">
<stop stop-color="#FDDD48"/>
<stop offset="1" stop-color="#00B7C4"/>
</linearGradient>
<linearGradient id="paint1_linear" x1="2.25555" y1="15.2057" x2="16.4053" y2="31.5363" gradientUnits="userSpaceOnUse">
<stop stop-color="#FDDD48"/>
<stop offset="1" stop-color="#00B7C4"/>
</linearGradient>
</defs>
</svg>
