<svg width="28" height="26" viewBox="0 0 28 26" fill="none" xmlns="http://www.w3.org/2000/svg">
<path d="M26.2754 9.71809H25.2886L27.4036 7.60304C27.7294 7.27729 27.9088 6.84419 27.9088 6.38351C27.9088 5.94069 27.7426 5.52361 27.4404 5.20257C27.7425 4.88154 27.9088 4.46445 27.9088 4.02164C27.9088 3.56095 27.7294 3.12786 27.4036 2.80216L25.3566 0.755217C25.0309 0.429408 24.5978 0.25 24.1371 0.25C23.6765 0.25 23.2434 0.429408 22.9177 0.755159L13.9547 9.71809H1.72463C0.773688 9.71809 0 10.4918 0 11.4427V24.0243C0 24.9753 0.773688 25.7489 1.72463 25.7489H26.2754C27.2263 25.7489 28 24.9753 28 24.0243V11.4427C28 10.4918 27.2263 9.71809 26.2754 9.71809ZM26.5392 6.7386L23.5597 9.71809H22.9266L26.5756 6.06911C26.734 6.26615 26.722 6.55587 26.5392 6.7386ZM11.387 14.574L13.5849 16.7718L10.5031 17.6558L11.387 14.574ZM14.7289 16.187L11.9717 13.4299L21.1848 4.21688L23.9419 6.97395L14.7289 16.187ZM23.7821 1.61954C23.8769 1.52466 24.003 1.47244 24.1371 1.47244C24.2713 1.47244 24.3974 1.52471 24.4922 1.61954L26.5393 3.66655C26.6341 3.76137 26.6863 3.88746 26.6863 4.02164C26.6863 4.15576 26.6341 4.2819 26.5392 4.37673L24.8064 6.10962L22.0493 3.3525L23.7821 1.61954ZM26.7776 24.0243C26.7776 24.3012 26.5523 24.5265 26.2754 24.5265H1.72463C1.44772 24.5265 1.22244 24.3012 1.22244 24.0243V11.4427C1.22244 11.1658 1.44772 10.9405 1.72463 10.9405H12.7323L10.6358 13.0371C10.5625 13.1104 10.509 13.2011 10.4804 13.3008L9.02394 18.3789C8.96264 18.5924 9.02213 18.8224 9.17925 18.9795C9.2955 19.0958 9.45162 19.1585 9.61153 19.1585C9.66776 19.1585 9.7244 19.1508 9.77999 19.1348L14.8581 17.6783C14.9577 17.6498 15.0485 17.5963 15.1218 17.523L21.7042 10.9405H26.2753C26.5522 10.9405 26.7775 11.1658 26.7775 11.4427V24.0243H26.7776Z" fill="black"/>
<path d="M3.39491 14.6707H7.06916C7.40673 14.6707 7.68038 14.397 7.68038 14.0595C7.68038 13.7219 7.40673 13.4482 7.06916 13.4482H3.39491C3.05734 13.4482 2.78369 13.7219 2.78369 14.0595C2.78369 14.397 3.0574 14.6707 3.39491 14.6707Z" fill="black"/>
<path d="M24.3271 20.9639H3.39491C3.05734 20.9639 2.78369 21.2375 2.78369 21.5751C2.78369 21.9127 3.05734 22.1863 3.39491 22.1863H24.3271C24.6646 22.1863 24.9383 21.9127 24.9383 21.5751C24.9383 21.2376 24.6646 20.9639 24.3271 20.9639Z" fill="black"/>
<path d="M24.3268 17.1914H20.0402C19.7026 17.1914 19.429 17.4651 19.429 17.8026C19.429 18.1402 19.7026 18.4138 20.0402 18.4138H24.3268C24.6644 18.4138 24.938 18.1402 24.938 17.8026C24.938 17.4651 24.6644 17.1914 24.3268 17.1914Z" fill="black"/>
</svg>
