<svg width="32" height="32" viewBox="0 0 32 32" fill="none" xmlns="http://www.w3.org/2000/svg">
<g clip-path="url(#clip0)">
<path d="M18.6667 12.1211L30.4133 14.4544C31.36 14.6544 32 15.4544 32 16.4011V30.0011C32 31.1078 31.1067 32.0011 30 32.0011H18C18.3733 32.0011 18.6667 31.7078 18.6667 31.3344V30.6678H30C30.36 30.6678 30.6667 30.3744 30.6667 30.0011V16.4011C30.6667 16.0944 30.4533 15.8144 30.1467 15.7478L18.6667 13.4811V12.1211Z" fill="#750E6C"/>
<path d="M25.9996 18.668C26.3729 18.668 26.6663 18.9613 26.6663 19.3346C26.6663 19.708 26.3729 20.0013 25.9996 20.0013H23.3329C22.9596 20.0013 22.6663 19.708 22.6663 19.3346C22.6663 18.9613 22.9596 18.668 23.3329 18.668H25.9996Z" fill="#750E6C"/>
<path d="M25.9996 22.668C26.3729 22.668 26.6663 22.9613 26.6663 23.3346C26.6663 23.708 26.3729 24.0013 25.9996 24.0013H23.3329C22.9596 24.0013 22.6663 23.708 22.6663 23.3346C22.6663 22.9613 22.9596 22.668 23.3329 22.668H25.9996Z" fill="#750E6C"/>
<path d="M25.9996 26.668C26.3729 26.668 26.6663 26.9613 26.6663 27.3346C26.6663 27.708 26.3729 28.0013 25.9996 28.0013H23.3329C22.9596 28.0013 22.6663 27.708 22.6663 27.3346C22.6663 26.9613 22.9596 26.668 23.3329 26.668H25.9996Z" fill="#750E6C"/>
<path d="M18.6671 31.3331C18.6671 31.7064 18.3737 31.9998 18.0004 31.9998C17.6271 31.9998 17.3337 31.7064 17.3337 31.3331V30.6664V12.6665C17.3337 12.4665 17.4271 12.2798 17.5737 12.1465C17.7337 12.0265 17.9337 11.9731 18.1337 12.0131L18.6671 12.1198V13.4798V30.6664V31.3331Z" fill="#750E6C"/>
<path d="M17.3329 30.668V31.3346C17.3329 31.708 17.6263 32.0013 17.9996 32.0013H12.6663C13.0396 32.0013 13.3329 31.708 13.3329 31.3346V30.668H17.3329Z" fill="#750E6C"/>
<path d="M13.9996 6.66797C14.3729 6.66797 14.6663 6.9613 14.6663 7.33464C14.6663 7.70798 14.3729 8.00131 13.9996 8.00131H11.3329C10.9596 8.00131 10.6663 7.70798 10.6663 7.33464C10.6663 6.9613 10.9596 6.66797 11.3329 6.66797H13.9996Z" fill="#750E6C"/>
<path d="M14.6663 11.3346C14.6663 11.708 14.3729 12.0013 13.9996 12.0013H11.3329C10.9596 12.0013 10.6663 11.708 10.6663 11.3346C10.6663 10.9613 10.9596 10.668 11.3329 10.668H13.9996C14.3729 10.668 14.6663 10.9613 14.6663 11.3346Z" fill="#750E6C"/>
<path d="M13.9996 14.668C14.3729 14.668 14.6663 14.9613 14.6663 15.3346C14.6663 15.708 14.3729 16.0013 13.9996 16.0013H11.3329C10.9596 16.0013 10.6663 15.708 10.6663 15.3346C10.6663 14.9613 10.9596 14.668 11.3329 14.668H13.9996Z" fill="#750E6C"/>
<path d="M13.9996 18.668C14.3729 18.668 14.6663 18.9613 14.6663 19.3346C14.6663 19.708 14.3729 20.0013 13.9996 20.0013H11.3329C10.9596 20.0013 10.6663 19.708 10.6663 19.3346C10.6663 18.9613 10.9596 18.668 11.3329 18.668H13.9996Z" fill="#750E6C"/>
<path d="M8 19.3346C8 19.708 7.70667 20.0013 7.33333 20.0013H4.66667C4.29333 20.0013 4 19.708 4 19.3346C4 18.9613 4.29333 18.668 4.66667 18.668H7.33333C7.70667 18.668 8 18.9613 8 19.3346Z" fill="#750E6C"/>
<path d="M7.33333 6.66797C7.70667 6.66797 8 6.9613 8 7.33464C8 7.70798 7.70667 8.00131 7.33333 8.00131H4.66667C4.29333 8.00131 4 7.70798 4 7.33464C4 6.9613 4.29333 6.66797 4.66667 6.66797H7.33333Z" fill="#750E6C"/>
<path d="M7.33333 10.668C7.70667 10.668 8 10.9613 8 11.3346C8 11.708 7.70667 12.0013 7.33333 12.0013H4.66667C4.29333 12.0013 4 11.708 4 11.3346C4 10.9613 4.29333 10.668 4.66667 10.668H7.33333Z" fill="#750E6C"/>
<path d="M7.33333 14.668C7.70667 14.668 8 14.9613 8 15.3346C8 15.708 7.70667 16.0013 7.33333 16.0013H4.66667C4.29333 16.0013 4 15.708 4 15.3346C4 14.9613 4.29333 14.668 4.66667 14.668H7.33333Z" fill="#750E6C"/>
<path d="M12.0004 24.668C12.0004 24.2946 11.6937 24.0013 11.3337 24.0013H7.33374C6.96041 24.0013 6.66707 24.2946 6.66707 24.668V30.668H5.33374V24.668C5.33374 23.5613 6.22707 22.668 7.33374 22.668H11.3337C12.4404 22.668 13.3337 23.5613 13.3337 24.668V30.668H12.0004V24.668Z" fill="#750E6C"/>
<path d="M6.66707 30.668H12.0004H13.3337V31.3346C13.3337 31.708 13.0404 32.0013 12.6671 32.0013H6.00041C5.62707 32.0013 5.33374 31.708 5.33374 31.3346V30.668H6.66707Z" fill="#750E6C"/>
<path d="M2.33333 0.268146L16.9867 2.49481C17.96 2.65481 18.6667 3.48148 18.6667 4.46815V12.1215L18.1333 12.0148C17.9333 11.9748 17.7333 12.0281 17.5733 12.1481C17.4267 12.2815 17.3333 12.4681 17.3333 12.6681V4.46815C17.3333 4.13481 17.0933 3.85481 16.7733 3.80148L2.12 1.58815C2.08 1.57481 2.04 1.57481 2 1.57481C1.84 1.57481 1.69333 1.62815 1.57333 1.73481C1.41333 1.86815 1.33333 2.04148 1.33333 2.24148V30.0015C1.33333 30.3748 1.64 30.6681 2 30.6681H5.33333V31.3348C5.33333 31.7081 5.62667 32.0015 6 32.0015H2C0.893333 32.0015 0 31.1081 0 30.0015V2.24148C0 1.65481 0.253333 1.09481 0.706667 0.72148C1.16 0.334813 1.74667 0.174813 2.33333 0.268146Z" fill="#750E6C"/>
</g>
<defs>
<clipPath id="clip0">
<rect width="32" height="32" fill="white"/>
</clipPath>
</defs>
</svg>
