<svg width="29" height="32" viewBox="0 0 29 32" fill="none" xmlns="http://www.w3.org/2000/svg">
<path d="M28.6633 16.7018L25.584 8.28898C25.5058 8.07525 25.324 7.91618 25.1017 7.86718C24.8795 7.81805 24.6475 7.88578 24.4866 8.04672L17.9325 14.6003C17.0659 13.8727 16.0642 13.2858 15.0258 12.8802C17.3847 11.8338 19.0343 9.46871 19.0343 6.72512C19.0344 3.01686 16.0173 0 12.3088 0C8.59902 0 5.58082 3.01686 5.58082 6.72512C5.58082 9.30765 7.04309 11.5547 9.18275 12.6825C7.76462 13.1544 6.47802 14.002 5.41669 15.1815C5.23856 15.1602 5.05836 15.148 4.87616 15.148C3.68036 15.148 2.5565 15.6139 1.71223 16.4594L1.3539 16.8174C0.508235 17.6625 0.0427022 18.7869 0.0429689 19.9834C0.0432355 21.1796 0.508901 22.3032 1.3537 23.1468L8.53382 30.328L8.89208 30.6865C9.73722 31.5333 10.8611 31.9998 12.0567 32C12.0569 32 12.0571 32 12.0574 32C13.2531 32 14.3775 31.5336 15.2227 30.6872L15.5819 30.3283C15.5861 30.3243 15.5901 30.3201 15.5941 30.3159L28.5085 17.4024C28.6922 17.2188 28.7525 16.9456 28.6633 16.7018ZM16.9851 15.5477L12.7247 19.8077V13.859H13.7473V13.8591C14.8881 14.1827 16.0343 14.7734 16.9851 15.5477ZM12.3088 1.33333C15.2821 1.33333 17.7011 3.75206 17.7011 6.72512C17.7011 6.92032 17.6901 7.11285 17.6698 7.30278L14.3827 4.06526C14.1999 3.88513 13.9299 3.82599 13.6886 3.91313L6.92849 6.35312C7.12055 3.55313 9.45948 1.33333 12.3088 1.33333ZM7.01135 7.74065L13.7463 5.30979L17.287 8.79712C16.4735 10.747 14.5487 12.1211 12.3088 12.1211C9.68135 12.1212 7.48782 10.2321 7.01135 7.74065ZM9.95468 13.8422C10.0021 13.8529 10.0514 13.8591 10.1021 13.8591H11.3914V19.8098L8.04075 16.4599C7.69015 16.1088 7.29102 15.8244 6.85915 15.6104C7.75875 14.7585 8.81215 14.1588 9.95468 13.8422ZM14.2803 29.7442L14.2799 29.7445C13.686 30.3393 12.8968 30.6667 12.0575 30.6667C12.0573 30.6667 12.0571 30.6667 12.0569 30.6667C11.2179 30.6666 10.4291 30.3391 9.83555 29.7443L9.47688 29.3855V29.3854H9.47682L2.2963 22.2038C1.70323 21.6116 1.37657 20.823 1.37637 19.9832C1.37617 19.1431 1.7029 18.3538 2.29643 17.7606L2.65516 17.4021C3.2481 16.8084 4.03683 16.4814 4.87616 16.4814C5.71556 16.4814 6.50436 16.8084 7.09769 17.4024L11.5857 21.8896C11.8248 22.1286 12.1999 22.1474 12.4613 21.9474C12.4667 21.9432 12.4725 21.9396 12.4779 21.9352C12.4865 21.9283 12.4944 21.9203 12.5027 21.9128C12.5113 21.9051 12.5203 21.8978 12.5285 21.8894L24.6909 9.72798L27.2649 16.7604L14.2803 29.7442Z" fill="#750E6C"/>
<path d="M4.73816 19.0939C4.47796 18.8334 4.05583 18.8333 3.79536 19.0934C3.5349 19.3536 3.53463 19.7757 3.79489 20.0362L6.50262 22.7467C6.63282 22.877 6.80356 22.9422 6.97429 22.9422C7.14482 22.9422 7.31529 22.8772 7.44542 22.7472C7.70589 22.487 7.70615 22.0649 7.44589 21.8044L4.73816 19.0939Z" fill="#750E6C"/>
</svg>
