<svg width="24" height="36" viewBox="0 0 24 36" fill="none" xmlns="http://www.w3.org/2000/svg">
<path d="M1.45312 0C1.06479 0 0.75 0.314859 0.75 0.703125V35.2969C0.75 35.6851 1.06479 36 1.45312 36H16.9219C17.1112 36 17.2911 35.9222 17.4191 35.7941L23.0441 30.1691C23.1679 30.045 23.25 29.865 23.25 29.6719V0.703125C23.25 0.314859 22.9352 0 22.5469 0H1.45312ZM21.8438 28.9688H16.9219C16.5335 28.9688 16.2188 29.2836 16.2188 29.6719V34.5938H2.15625V1.40625H21.8438V28.9688Z" fill="#1C1C28"/>
<path d="M8.03426 14.3214C8.33126 14.5689 8.77494 14.531 9.02454 14.2314L16.0558 5.79386C16.3044 5.49559 16.2641 5.0522 15.9658 4.80357C15.6675 4.55509 15.2241 4.59524 14.9755 4.89364L7.94426 13.3311C7.69564 13.6294 7.73593 14.0727 8.03426 14.3214Z" fill="#1C1C28"/>
<path d="M13.4062 12.375C13.4062 13.5381 14.3525 14.4844 15.5156 14.4844C16.6787 14.4844 17.625 13.5381 17.625 12.375C17.625 11.2119 16.6787 10.2656 15.5156 10.2656C14.3525 10.2656 13.4062 11.2119 13.4062 12.375ZM16.2188 12.375C16.2188 12.7627 15.9033 13.0781 15.5156 13.0781C15.1279 13.0781 14.8125 12.7627 14.8125 12.375C14.8125 11.9873 15.1279 11.6719 15.5156 11.6719C15.9033 11.6719 16.2188 11.9873 16.2188 12.375Z" fill="#1C1C28"/>
<path d="M8.48438 8.85938C9.64748 8.85938 10.5938 7.91311 10.5938 6.75C10.5938 5.58689 9.64748 4.64062 8.48438 4.64062C7.32127 4.64062 6.375 5.58689 6.375 6.75C6.375 7.91311 7.32127 8.85938 8.48438 8.85938ZM8.48438 6.04688C8.87208 6.04688 9.1875 6.3623 9.1875 6.75C9.1875 7.1377 8.87208 7.45312 8.48438 7.45312C8.09667 7.45312 7.78125 7.1377 7.78125 6.75C7.78125 6.3623 8.09667 6.04688 8.48438 6.04688Z" fill="#1C1C28"/>
<path d="M5.67188 18.7031H18.3281C18.7165 18.7031 19.0312 18.3883 19.0312 18C19.0312 17.6117 18.7165 17.2969 18.3281 17.2969H5.67188C5.28354 17.2969 4.96875 17.6117 4.96875 18C4.96875 18.3883 5.28354 18.7031 5.67188 18.7031Z" fill="#1C1C28"/>
<path d="M5.67188 22.9219H18.3281C18.7165 22.9219 19.0312 22.607 19.0312 22.2188C19.0312 21.8305 18.7165 21.5156 18.3281 21.5156H5.67188C5.28354 21.5156 4.96875 21.8305 4.96875 22.2188C4.96875 22.607 5.28354 22.9219 5.67188 22.9219Z" fill="#1C1C28"/>
<path d="M5.67188 27.1406H14.1094C14.4977 27.1406 14.8125 26.8258 14.8125 26.4375C14.8125 26.0492 14.4977 25.7344 14.1094 25.7344H5.67188C5.28354 25.7344 4.96875 26.0492 4.96875 26.4375C4.96875 26.8258 5.28354 27.1406 5.67188 27.1406Z" fill="#1C1C28"/>
</svg>
