<svg width="28" height="36" viewBox="0 0 28 36" fill="none" xmlns="http://www.w3.org/2000/svg">
<path d="M16.4183 35.8791C16.6115 36.0098 16.8569 36.0365 17.0736 35.9497L20.3281 34.648L23.5826 35.9497C23.8004 36.0369 24.046 36.0091 24.2379 35.8791C24.4311 35.7484 24.5469 35.5302 24.5469 35.2969V29.9495C26.2536 28.6654 27.3594 26.6235 27.3594 24.3281C27.3594 21.4506 25.6216 18.9717 23.1406 17.8845V0.703125C23.1406 0.314789 22.8258 0 22.4375 0H1.34375C0.955484 0 0.640625 0.314789 0.640625 0.703125V30.6562C0.640625 31.0446 0.955484 31.3594 1.34375 31.3594H16.1094V35.2969C16.1094 35.5302 16.2252 35.7483 16.4183 35.8791ZM23.1406 34.2583L20.5893 33.2378C20.4216 33.1707 20.2347 33.1707 20.067 33.2378L17.5156 34.2583V30.7716C18.3774 31.1492 19.3286 31.3593 20.3281 31.3593C21.3276 31.3593 22.2789 31.1492 23.1406 30.7716V34.2583ZM25.9531 24.3281C25.9531 27.4298 23.4298 29.9531 20.3281 29.9531C17.2265 29.9531 14.7031 27.4298 14.7031 24.3281C14.7031 21.2265 17.2265 18.7031 20.3281 18.7031C23.4298 18.7031 25.9531 21.2265 25.9531 24.3281ZM2.04688 29.9531V1.40625H21.7344V17.4383C21.2799 17.3457 20.8096 17.2969 20.3281 17.2969C16.451 17.2969 13.2969 20.4511 13.2969 24.3281C13.2969 26.6235 14.4027 28.6655 16.1094 29.9495V29.9531H2.04688Z" fill="#750E6C"/>
<path d="M20.3281 27.1406C21.8814 27.1406 23.1406 25.8814 23.1406 24.3281C23.1406 22.7748 21.8814 21.5156 20.3281 21.5156C18.7748 21.5156 17.5156 22.7748 17.5156 24.3281C17.5156 25.8814 18.7748 27.1406 20.3281 27.1406Z" fill="#750E6C"/>
<path d="M5.5625 6.04688H9.78125C10.1695 6.04688 10.4844 5.73209 10.4844 5.34375C10.4844 4.95541 10.1695 4.64062 9.78125 4.64062H5.5625C5.17423 4.64062 4.85938 4.95541 4.85938 5.34375C4.85938 5.73209 5.17423 6.04688 5.5625 6.04688Z" fill="#750E6C"/>
<path d="M5.5625 10.2656H18.2188C18.607 10.2656 18.9219 9.95084 18.9219 9.5625C18.9219 9.17416 18.607 8.85938 18.2188 8.85938H5.5625C5.17423 8.85938 4.85938 9.17416 4.85938 9.5625C4.85938 9.95084 5.17423 10.2656 5.5625 10.2656Z" fill="#750E6C"/>
<path d="M5.5625 14.4844H18.2188C18.607 14.4844 18.9219 14.1696 18.9219 13.7812C18.9219 13.3929 18.607 13.0781 18.2188 13.0781H5.5625C5.17423 13.0781 4.85938 13.3929 4.85938 13.7812C4.85938 14.1696 5.17423 14.4844 5.5625 14.4844Z" fill="#750E6C"/>
<path d="M11.1875 17.2969H5.5625C5.17423 17.2969 4.85938 17.6117 4.85938 18C4.85938 18.3883 5.17423 18.7031 5.5625 18.7031H11.1875C11.5758 18.7031 11.8906 18.3883 11.8906 18C11.8906 17.6117 11.5758 17.2969 11.1875 17.2969Z" fill="#750E6C"/>
<path d="M9.78125 21.5156H5.5625C5.17423 21.5156 4.85938 21.8304 4.85938 22.2188C4.85938 22.6071 5.17423 22.9219 5.5625 22.9219H9.78125C10.1695 22.9219 10.4844 22.6071 10.4844 22.2188C10.4844 21.8304 10.1696 21.5156 9.78125 21.5156Z" fill="#750E6C"/>
</svg>
