<svg width="48" height="48" viewBox="0 0 48 48" fill="none" xmlns="http://www.w3.org/2000/svg">
<circle cx="24" cy="24" r="24" fill="#BC2F2A"/>
<path d="M35.6015 18.0939C35.3355 17.115 34.5561 16.3432 33.5676 16.0796C31.7617 15.5903 24.5382 15.5903 24.5382 15.5903C24.5382 15.5903 17.315 15.5903 15.5091 16.0611C14.5396 16.3244 13.7412 17.1151 13.4752 18.0939C13 19.882 13 23.5903 13 23.5903C13 23.5903 13 27.3173 13.4752 29.0867C13.7414 30.0656 14.5206 30.8373 15.5093 31.1009C17.334 31.5903 24.5385 31.5903 24.5385 31.5903C24.5385 31.5903 31.7617 31.5903 33.5676 31.1196C34.5562 30.8561 35.3355 30.0844 35.6017 29.1055C36.0768 27.3173 36.0768 23.6092 36.0768 23.6092C36.0768 23.6092 36.0958 19.882 35.6015 18.0939ZM22.2384 27.0162V20.1645L28.2451 23.5903L22.2384 27.0162Z" fill="white"/>
</svg>
