<svg width="28" height="28" viewBox="0 0 28 28" fill="none" xmlns="http://www.w3.org/2000/svg">
<path d="M26.3594 19.7422H18.3351L17.4681 21.4762C17.3292 21.7541 17.0451 21.9297 16.7344 21.9297H11.2656C10.9549 21.9297 10.6708 21.7541 10.5319 21.4762L9.66487 19.7422H1.64062C0.734508 19.7422 0 20.4767 0 21.3828V23.5703C0 24.4764 0.734508 25.2109 1.64062 25.2109H26.3594C27.2655 25.2109 28 24.4764 28 23.5703V21.3828C28 20.4767 27.2655 19.7422 26.3594 19.7422Z" fill="url(#paint0_linear)"/>
<path d="M13.2621 8.61914C12.9013 8.80502 12.7115 9.16984 12.6534 9.47817C12.5843 9.8448 12.6773 10.1897 12.8904 10.3568C12.9986 10.4417 13.1245 10.5239 13.2621 10.6036V8.61914Z" fill="url(#paint1_linear)"/>
<path d="M15.5969 14.2213C15.6418 13.9544 15.7064 13.0544 14.6526 12.6819C14.6449 12.6792 14.6375 12.6765 14.6299 12.6738V15.4857C15.1855 15.2401 15.5137 14.7162 15.5969 14.2213Z" fill="url(#paint2_linear)"/>
<path d="M10.9056 18.555L11.7726 20.2891H16.2274L17.0944 18.555C17.2334 18.2771 17.5174 18.1016 17.8281 18.1016H26.3594V5.25C26.3594 3.89304 25.2554 2.78906 23.8984 2.78906H4.10156C2.7446 2.78906 1.64062 3.89304 1.64062 5.25V18.1016H10.1719C10.4826 18.1016 10.7666 18.2771 10.9056 18.555ZM18.3514 9.5824L20.0467 7.94177C20.3685 7.63033 20.8806 7.63454 21.1973 7.95118L22.8379 9.5918C23.1582 9.91216 23.1582 10.4315 22.8379 10.7519C22.5176 11.0723 21.9982 11.0723 21.6778 10.7519L21.4375 10.5116V15.0938C21.4375 15.5468 21.0702 15.9141 20.6172 15.9141C20.1642 15.9141 19.7969 15.5468 19.7969 15.0938V10.4666C19.569 10.6963 19.2699 11.0211 18.9219 10.9922C18.7074 10.9922 18.4933 10.9086 18.3324 10.7423C18.0173 10.4168 18.0259 9.89745 18.3514 9.5824ZM11.1255 15.3324C11.3322 15.0164 11.7558 14.9278 12.0718 15.1345C12.5488 15.4465 12.8388 15.5657 13.2624 15.6078V12.136C12.742 11.9013 12.3585 11.6775 12.047 11.4332C11.4274 10.9472 11.1451 10.1013 11.3101 9.22556C11.4906 8.26793 12.1562 7.5063 13.0472 7.23795C13.1201 7.21602 13.1916 7.19715 13.2624 7.1797V6.61719C13.2624 6.23968 13.5685 5.93359 13.946 5.93359C14.3235 5.93359 14.6296 6.23968 14.6296 6.61719V7.10046C15.4045 7.21334 15.9492 7.58773 16.2078 7.88468C16.4559 8.16933 16.4262 8.60114 16.1415 8.84915C15.8577 9.09634 15.4279 9.06763 15.1795 8.7856C15.1668 8.77264 14.9855 8.59332 14.6296 8.49619V11.2187C14.7901 11.2789 14.9506 11.3368 15.108 11.3924C16.4558 11.8689 17.1769 13.0681 16.9449 14.4476C16.8318 15.1205 16.4932 15.745 15.9916 16.2059C15.6021 16.5638 15.1392 16.8044 14.6296 16.9187V17.5547C14.6296 17.9322 14.3235 18.2383 13.946 18.2383C13.5685 18.2383 13.2624 17.9322 13.2624 17.5547V16.9795C12.6058 16.9339 12.0807 16.7741 11.3233 16.2786C11.0074 16.0719 10.9189 15.6483 11.1255 15.3324ZM9.02344 10.9922H5.74219C5.28916 10.9922 4.92188 10.6249 4.92188 10.1719C4.92188 9.71884 5.28916 9.35156 5.74219 9.35156H9.02344C9.47647 9.35156 9.84375 9.71884 9.84375 10.1719C9.84375 10.6249 9.47647 10.9922 9.02344 10.9922ZM9.02344 7.71094H5.74219C5.28916 7.71094 4.92188 7.34366 4.92188 6.89062C4.92188 6.43759 5.28916 6.07031 5.74219 6.07031H9.02344C9.47647 6.07031 9.84375 6.43759 9.84375 6.89062C9.84375 7.34366 9.47647 7.71094 9.02344 7.71094Z" fill="url(#paint3_linear)"/>
<defs>
<linearGradient id="paint0_linear" x1="-9.04425" y1="21.5086" x2="-8.08158" y2="29.1382" gradientUnits="userSpaceOnUse">
<stop stop-color="#FF8800"/>
<stop offset="1" stop-color="#E63535"/>
</linearGradient>
<linearGradient id="paint1_linear" x1="12.427" y1="9.26015" x2="13.5416" y2="9.809" gradientUnits="userSpaceOnUse">
<stop stop-color="#FF8800"/>
<stop offset="1" stop-color="#E63535"/>
</linearGradient>
<linearGradient id="paint2_linear" x1="14.3109" y1="13.5821" x2="15.9832" y2="14.4911" gradientUnits="userSpaceOnUse">
<stop stop-color="#FF8800"/>
<stop offset="1" stop-color="#E63535"/>
</linearGradient>
<linearGradient id="paint3_linear" x1="-6.34375" y1="8.44172" x2="3.03788" y2="28.9544" gradientUnits="userSpaceOnUse">
<stop stop-color="#FF8800"/>
<stop offset="1" stop-color="#E63535"/>
</linearGradient>
</defs>
</svg>
