<svg width="36" height="36" viewBox="0 0 36 36" fill="none" xmlns="http://www.w3.org/2000/svg">
<g clip-path="url(#clip0)">
<path d="M32.7656 16.8747H29.2499V7.73393C29.2499 7.55154 29.1776 7.37069 29.0445 7.23731C29.0443 7.2371 29.0441 7.23689 29.0439 7.23675L22.0129 0.205738C21.877 0.0695402 21.6937 0 21.5149 0C21.5146 0 7.59236 0.000140627 7.45271 0.000140627C7.06437 0.000140627 6.74958 0.314302 6.74958 0.702573V12.6559H3.2339C2.84556 12.6559 2.53076 12.9707 2.53076 13.359V33.8906C2.53076 35.0537 3.47704 36 4.64017 36H31.3593C32.5225 36 33.4687 35.0537 33.4687 33.8906V17.5778C33.4687 17.1895 33.154 16.8747 32.7656 16.8747ZM22.2186 2.40008L26.8492 7.0308H22.2186V2.40008ZM8.15585 1.40571C10.5801 1.40571 18.4132 1.40571 20.8123 1.40564V7.73393C20.8123 8.1222 21.1271 8.43707 21.5154 8.43707H27.8437V16.8747H12.1783L10.9323 13.1367C10.8366 12.8495 10.5678 12.6559 10.2652 12.6559H8.15578V1.40571H8.15585ZM32.0625 33.8906C32.0625 34.2783 31.747 34.5937 31.3593 34.5937H4.64017C4.25246 34.5937 3.93703 34.2783 3.93703 33.8906V14.0622H9.75844L11.0045 17.8002C11.1002 18.0873 11.3689 18.281 11.6715 18.281H32.0625V33.8906Z" fill="#4F064B"/>
<path d="M21.5151 31.3594H28.5465C28.9348 31.3594 29.2496 31.0446 29.2496 30.6563V27.8438C29.2496 27.4555 28.9348 27.1406 28.5465 27.1406H21.5151C21.1268 27.1406 20.812 27.4555 20.812 27.8438V30.6563C20.812 31.0446 21.1268 31.3594 21.5151 31.3594Z" fill="#4F064B"/>
<path d="M11.6714 9.8428H17.2965C17.6848 9.8428 17.9996 9.52793 17.9996 9.13966C17.9996 8.75139 17.6848 8.43652 17.2965 8.43652H11.6714C11.2831 8.43652 10.9683 8.75139 10.9683 9.13966C10.9683 9.52793 11.2831 9.8428 11.6714 9.8428Z" fill="#4F064B"/>
<path d="M15.187 13.3584C15.187 13.7467 15.5018 14.0616 15.8901 14.0616H24.3278C24.7161 14.0616 25.0309 13.7467 25.0309 13.3584C25.0309 12.9701 24.7161 12.6553 24.3278 12.6553H15.8901C15.5018 12.6553 15.187 12.9701 15.187 13.3584Z" fill="#4F064B"/>
<path d="M11.6714 5.62405H17.2965C17.6848 5.62405 17.9996 5.30918 17.9996 4.92091C17.9996 4.53264 17.6848 4.21777 17.2965 4.21777H11.6714C11.2831 4.21777 10.9683 4.53264 10.9683 4.92091C10.9683 5.30918 11.2831 5.62405 11.6714 5.62405Z" fill="#4F064B"/>
</g>
<defs>
<clipPath id="clip0">
<rect width="36" height="36" fill="white"/>
</clipPath>
</defs>
</svg>
