<svg width="26" height="28" viewBox="0 0 26 28" fill="none" xmlns="http://www.w3.org/2000/svg">
<path d="M11.0371 20.4798C11.0371 24.5472 14.3344 27.8445 18.4018 27.8445C22.4691 27.8445 25.7663 24.5472 25.7663 20.4798C25.7663 16.4124 22.4691 13.1152 18.4018 13.1152C14.3343 13.1152 11.0371 16.4124 11.0371 20.4798ZM15.5251 17.6036C15.7075 17.4213 15.9604 17.3164 16.2182 17.3164C16.4761 17.3164 16.729 17.4213 16.9124 17.6036C17.0948 17.786 17.1987 18.039 17.1987 18.2968C17.1987 18.5547 17.0948 18.8076 16.9124 18.99C16.729 19.1724 16.4771 19.2773 16.2182 19.2773C15.9604 19.2773 15.7075 19.1724 15.5251 18.99C15.3427 18.8076 15.2378 18.5547 15.2378 18.2968C15.2378 18.039 15.3427 17.786 15.5251 17.6036ZM21.2781 23.3557C21.0957 23.5381 20.8428 23.643 20.5849 23.643C20.3271 23.643 20.0741 23.5381 19.8918 23.3557C19.7084 23.1734 19.6045 22.9214 19.6045 22.6626C19.6045 22.4046 19.7084 22.1518 19.8918 21.9694C20.0741 21.7869 20.3271 21.6821 20.5849 21.6821C20.8428 21.6821 21.0957 21.7869 21.2781 21.9694C21.4606 22.1518 21.5654 22.4046 21.5654 22.6626C21.5654 22.9215 21.4606 23.1735 21.2781 23.3557ZM21.2649 17.6165C21.6478 17.9994 21.6478 18.6202 21.2649 19.0031L16.9251 23.3429C16.7336 23.5343 16.4828 23.63 16.2318 23.63C15.9809 23.63 15.73 23.5343 15.5385 23.3429C15.1557 22.96 15.1557 22.3392 15.5385 21.9564L19.8783 17.6165C20.2614 17.2338 20.882 17.2338 21.2649 17.6165Z" fill="url(#paint0_linear)"/>
<path d="M9.07621 20.4804C9.07621 15.3383 13.2596 11.1549 18.4016 11.1549C18.5721 11.1549 18.7414 11.1598 18.9096 11.1689V0.980377C18.9096 0.438949 18.4706 0 17.9292 0H1.21377C0.672348 0 0.233398 0.438949 0.233398 0.980377V27.0195C0.233398 27.561 0.672348 27.9999 1.21377 27.9999H12.8931C10.5804 26.3012 9.07621 23.5634 9.07621 20.4804ZM5.77758 5.20791H12.7214C13.2628 5.20791 13.7018 5.64685 13.7018 6.18828C13.7018 6.72971 13.2628 7.16866 12.7214 7.16866H5.77758C5.23616 7.16866 4.79721 6.72971 4.79721 6.18828C4.79721 5.64685 5.23616 5.20791 5.77758 5.20791ZM5.77758 10.4157H12.7214C13.2628 10.4157 13.7018 10.8547 13.7018 11.3961C13.7018 11.9375 13.2628 12.3765 12.7214 12.3765H5.77758C5.23616 12.3765 4.79721 11.9375 4.79721 11.3961C4.79711 10.8547 5.23616 10.4157 5.77758 10.4157ZM7.51349 17.5843H5.77758C5.23616 17.5843 4.79721 17.1453 4.79721 16.6039C4.79721 16.0625 5.23616 15.6235 5.77758 15.6235H7.51349C8.05491 15.6235 8.49386 16.0625 8.49386 16.6039C8.49386 17.1453 8.05491 17.5843 7.51349 17.5843Z" fill="url(#paint1_linear)"/>
<defs>
<linearGradient id="paint0_linear" x1="6.27944" y1="17.8729" x2="15.7948" y2="32.6021" gradientUnits="userSpaceOnUse">
<stop stop-color="#3E7BFA"/>
<stop offset="1" stop-color="#6600CC"/>
</linearGradient>
<linearGradient id="paint1_linear" x1="-5.79917" y1="9.04422" x2="14.0334" y2="29.5212" gradientUnits="userSpaceOnUse">
<stop stop-color="#3E7BFA"/>
<stop offset="1" stop-color="#6600CC"/>
</linearGradient>
</defs>
</svg>
