<svg width="28" height="20" viewBox="0 0 28 20" fill="none" xmlns="http://www.w3.org/2000/svg">
<path d="M13.2559 8.39552V10.9473H12.5328C12.1993 10.9473 11.929 11.2177 11.929 11.5512C11.929 11.8846 12.1993 12.155 12.5328 12.155H13.2559V12.4225C13.2559 12.756 13.5263 13.0264 13.8598 13.0264C14.1932 13.0264 14.4636 12.756 14.4636 12.4225V12.0794C15.5212 11.8098 16.3056 10.8494 16.3056 9.70914C16.3056 8.56886 15.5211 7.60852 14.4636 7.33897V4.78707H15.068C15.4015 4.78707 15.6719 4.51672 15.6719 4.18323C15.6719 3.84973 15.4015 3.57938 15.068 3.57938H14.4636V3.31185C14.4636 2.97836 14.1932 2.70801 13.8598 2.70801C13.5263 2.70801 13.2559 2.97836 13.2559 3.31185V3.65501C12.1984 3.92461 11.4141 4.88501 11.4141 6.0253C11.4141 7.16558 12.1984 8.12598 13.2559 8.39552ZM15.0979 9.7092C15.0979 10.1727 14.8415 10.5768 14.4636 10.789V8.62936C14.8415 8.84156 15.0979 9.24574 15.0979 9.7092ZM13.2559 4.94545V7.10514C12.878 6.89299 12.6218 6.4887 12.6218 6.02535C12.6218 5.56189 12.878 5.15766 13.2559 4.94545Z" fill="#4F064B"/>
<path d="M27.7984 16.1356L24.9896 13.6264V1.54134C24.9896 1.20785 24.7193 0.9375 24.3858 0.9375H3.6276C3.29411 0.9375 3.02376 1.20785 3.02376 1.54134V13.6256L0.202604 16.1346C0.0737264 16.2492 0 16.4134 0 16.5858V17.2554C0 18.2693 0.767744 19.0635 1.74781 19.0635H26.192C27.189 19.0635 28 18.2524 28 17.2554V16.5858C28 16.4139 27.9267 16.2501 27.7984 16.1356ZM23.782 2.14519V13.2928H4.23145V2.14519H23.782ZM26.7923 17.2554C26.7923 17.5864 26.523 17.8558 26.192 17.8558H1.74781C1.39321 17.8558 1.20769 17.5538 1.20769 17.2554V16.8569L3.8573 14.5005H24.1554L26.7923 16.8561V17.2554Z" fill="#4F064B"/>
</svg>
