<svg width="36" height="36" viewBox="0 0 36 36" fill="none" xmlns="http://www.w3.org/2000/svg">
<path d="M33.8906 4.21875C33.2508 4.21875 30.7808 4.21875 29.6719 4.21875V0.703125C29.6719 0.314859 29.357 0 28.9688 0C28.5805 0 28.2656 0.314859 28.2656 0.703125V4.21875H26.8594C26.4711 4.21875 26.1562 4.53361 26.1562 4.92188V17.7188C25.0148 17.7188 1.88585 17.7188 0.703125 17.7188C0.314789 17.7188 0 18.0336 0 18.4219V35.2969C0 35.6851 0.314789 36 0.703125 36H35.2969C35.6851 36 36 35.6851 36 35.2969V18.4219C36 18.0336 35.6851 17.7188 35.2969 17.7188H31.7812V5.625H33.8906C34.2783 5.625 34.5938 5.94042 34.5938 6.32812V14.2031C34.5938 14.5914 34.9086 14.9062 35.2969 14.9062C35.6851 14.9062 36 14.5914 36 14.2031V6.32812C36 5.16502 35.0537 4.21875 33.8906 4.21875ZM27.5625 5.625H30.375V21.9375H27.5625V5.625ZM4.21875 34.5938H1.40625V19.125H4.21875V34.5938ZM34.5938 19.125V34.5938H5.625V19.125H26.1562V24.75C26.1562 26.7123 26.6867 28.6668 27.6677 30.375H18.4219C18.0336 30.375 17.7188 30.6899 17.7188 31.0781C17.7188 31.4664 18.0336 31.7812 18.4219 31.7812H28.9688C28.969 31.7812 28.9693 31.7812 28.9696 31.7812C29.1958 31.7809 29.4051 31.6687 29.5323 31.4986C30.9826 29.5549 31.7812 27.1582 31.7812 24.75C31.7812 23.7298 31.7812 20.9133 31.7812 19.125H34.5938Z" fill="#750E6C"/>
<path d="M9.14062 23.3438H22.6406C23.0289 23.3438 23.3438 23.0289 23.3438 22.6406C23.3438 22.2524 23.0289 21.9375 22.6406 21.9375H9.14062C8.75229 21.9375 8.4375 22.2524 8.4375 22.6406C8.4375 23.0289 8.75229 23.3438 9.14062 23.3438Z" fill="#750E6C"/>
<path d="M23.3438 26.8594C23.3438 26.4711 23.0289 26.1562 22.6406 26.1562H9.14062C8.75229 26.1562 8.4375 26.4711 8.4375 26.8594C8.4375 27.2476 8.75229 27.5625 9.14062 27.5625H22.6406C23.0289 27.5625 23.3438 27.2476 23.3438 26.8594Z" fill="#750E6C"/>
</svg>
