<svg width="32" height="33" viewBox="0 0 32 33" fill="none" xmlns="http://www.w3.org/2000/svg">
<g clip-path="url(#clip0)">
<path d="M24.7752 4.57844H27.1084C27.4766 4.57844 27.7751 4.27997 27.7751 3.91177V0.670573C27.7751 0.302373 27.4766 0.00390625 27.1084 0.00390625H5.66667C5.29847 0.00390625 5 0.302373 5 0.670573V3.91177C5 4.27997 5.29847 4.57844 5.66667 4.57844H8.34687C8.4688 9.05457 10.4956 13.3203 13.3037 15.0364L13.2821 16.4897C11.9047 17.2302 10.6722 18.7434 9.77853 20.8057C8.89913 22.8351 8.39547 25.2613 8.34593 27.6787H5.66667C5.29847 27.6787 5 27.9772 5 28.3454V31.3372C5 31.7054 5.29847 32.0039 5.66667 32.0039H27.1084C27.4766 32.0039 27.7751 31.7054 27.7751 31.3372V28.3454C27.7751 27.9772 27.4766 27.6787 27.1084 27.6787H24.7753C24.7254 25.321 24.2289 22.9153 23.3631 20.8626C22.4871 18.7856 21.2925 17.2374 19.9671 16.4473L19.9931 15.1166C22.7475 13.5096 24.6656 9.29504 24.7752 4.57844ZM6.33333 3.24511V1.33724H26.4417V3.24511H6.33333ZM26.4417 29.012V30.6706H6.33333V29.012H26.4417ZM19.0065 17.4437C20.1902 18.0063 21.3011 19.4045 22.1346 21.3807C22.933 23.2737 23.3925 25.4955 23.442 27.6787H9.679C9.78253 22.9763 11.7311 18.5635 14.2007 17.5266C14.4449 17.4241 14.6052 17.1867 14.6091 16.9218L14.6427 14.661C14.6465 14.4087 14.5075 14.1759 14.2836 14.0596C11.7431 12.739 9.8068 8.71397 9.681 4.57844H23.4415C23.3298 8.94411 21.5144 12.9121 19.0426 14.1139C18.8173 14.2234 18.6725 14.45 18.6676 14.7005L18.6262 16.8286C18.6211 17.0906 18.7699 17.3312 19.0065 17.4437Z" fill="#750E6C"/>
<path d="M13.1374 24.1328C12.962 24.1328 12.79 24.2041 12.666 24.3281C12.542 24.4521 12.4707 24.6241 12.4707 24.7995C12.4707 24.9748 12.542 25.1468 12.666 25.2708C12.79 25.3955 12.962 25.4661 13.1374 25.4661C13.3127 25.4661 13.4847 25.3955 13.6087 25.2708C13.7334 25.1468 13.804 24.9748 13.804 24.7995C13.804 24.6241 13.7334 24.4521 13.6087 24.3281C13.4847 24.2041 13.3127 24.1328 13.1374 24.1328Z" fill="#750E6C"/>
<path d="M16.359 22.5234C16.1837 22.5234 16.0117 22.5948 15.8877 22.7188C15.7637 22.8428 15.6924 23.0148 15.6924 23.1901C15.6924 23.3654 15.7637 23.5374 15.8877 23.6614C16.0117 23.7854 16.1837 23.8568 16.359 23.8568C16.5344 23.8568 16.7064 23.7854 16.8304 23.6614C16.9544 23.5374 17.0257 23.3654 17.0257 23.1901C17.0257 23.0148 16.9544 22.8428 16.8304 22.7188C16.7064 22.5948 16.5344 22.5234 16.359 22.5234Z" fill="#750E6C"/>
<path d="M19.5817 25.4661C19.757 25.4661 19.929 25.3955 20.053 25.2715C20.177 25.1468 20.2484 24.9755 20.2484 24.7995C20.2484 24.6241 20.177 24.4521 20.053 24.3281C19.929 24.2041 19.757 24.1328 19.5817 24.1328C19.4064 24.1328 19.2344 24.2041 19.1104 24.3281C18.9864 24.4521 18.915 24.6241 18.915 24.7995C18.915 24.9755 18.9864 25.1468 19.1104 25.2715C19.2344 25.3955 19.4064 25.4661 19.5817 25.4661Z" fill="#750E6C"/>
<path d="M16.359 16.0781C16.1837 16.0781 16.0117 16.1495 15.8877 16.2735C15.7637 16.3975 15.6924 16.5695 15.6924 16.7448C15.6924 16.9201 15.7637 17.0921 15.8877 17.2161C16.0117 17.3401 16.1837 17.4115 16.359 17.4115C16.5344 17.4115 16.7064 17.3401 16.8304 17.2161C16.9544 17.0921 17.0257 16.9201 17.0257 16.7448C17.0257 16.5695 16.9544 16.3975 16.8304 16.2735C16.7064 16.1495 16.5344 16.0781 16.359 16.0781Z" fill="#750E6C"/>
<path d="M16.359 19.3008C16.1837 19.3008 16.0117 19.3721 15.8877 19.4961C15.7637 19.6201 15.6924 19.7921 15.6924 19.9674C15.6924 20.1428 15.7637 20.3148 15.8877 20.4388C16.0117 20.5628 16.1837 20.6341 16.359 20.6341C16.5344 20.6341 16.7064 20.5628 16.8304 20.4388C16.9544 20.3148 17.0257 20.1428 17.0257 19.9674C17.0257 19.7921 16.9544 19.6201 16.8304 19.4961C16.7064 19.3721 16.5344 19.3008 16.359 19.3008Z" fill="#750E6C"/>
<path d="M16.359 12.8555C16.1837 12.8555 16.0117 12.9268 15.8877 13.0508C15.7637 13.1748 15.6924 13.3468 15.6924 13.5221C15.6924 13.6975 15.7637 13.8695 15.8877 13.9935C16.0117 14.1175 16.1837 14.1888 16.359 14.1888C16.5344 14.1888 16.7064 14.1175 16.8304 13.9935C16.9544 13.8695 17.0257 13.6975 17.0257 13.5221C17.0257 13.3468 16.9544 13.1748 16.8304 13.0508C16.7064 12.9268 16.5344 12.8555 16.359 12.8555Z" fill="#750E6C"/>
<path d="M13.1364 9.63281C12.9611 9.63281 12.7891 9.70348 12.6651 9.82748C12.5411 9.95215 12.4697 10.1235 12.4697 10.2995C12.4697 10.4748 12.5411 10.6461 12.6651 10.7708C12.7891 10.8948 12.9611 10.9655 13.1364 10.9655C13.3117 10.9655 13.4837 10.8948 13.6077 10.7708C13.7324 10.6461 13.8031 10.4748 13.8031 10.2995C13.8031 10.1235 13.7324 9.95215 13.6077 9.82748C13.4837 9.70348 13.3117 9.63281 13.1364 9.63281Z" fill="#750E6C"/>
<path d="M16.359 9.63281C16.1837 9.63281 16.0117 9.70348 15.8877 9.82748C15.7637 9.95215 15.6924 10.1235 15.6924 10.2995C15.6924 10.4748 15.7637 10.6461 15.8877 10.7708C16.0117 10.8948 16.1837 10.9661 16.359 10.9661C16.5344 10.9661 16.7064 10.8948 16.8304 10.7708C16.9544 10.6461 17.0257 10.4748 17.0257 10.2995C17.0257 10.1235 16.9544 9.95215 16.8304 9.82748C16.7064 9.70348 16.5344 9.63281 16.359 9.63281Z" fill="#750E6C"/>
<path d="M16.359 6.41016C16.1837 6.41016 16.0117 6.48082 15.8877 6.60482C15.7637 6.72882 15.6924 6.90082 15.6924 7.07682C15.6924 7.25216 15.7637 7.42349 15.8877 7.54816C16.0117 7.67216 16.1837 7.74349 16.359 7.74349C16.5344 7.74349 16.7064 7.67216 16.8304 7.54816C16.9544 7.42349 17.0257 7.25216 17.0257 7.07682C17.0257 6.90082 16.9544 6.72949 16.8304 6.60482C16.7064 6.48082 16.5344 6.41016 16.359 6.41016Z" fill="#750E6C"/>
<path d="M19.5817 10.9655C19.757 10.9655 19.929 10.8948 20.053 10.7708C20.177 10.6468 20.2484 10.4748 20.2484 10.2988C20.2484 10.1235 20.177 9.95215 20.053 9.82748C19.929 9.70348 19.757 9.63281 19.5817 9.63281C19.4064 9.63281 19.2344 9.70348 19.1104 9.82748C18.9864 9.95148 18.915 10.1235 18.915 10.2988C18.915 10.4748 18.9864 10.6468 19.1104 10.7708C19.2344 10.8948 19.4064 10.9655 19.5817 10.9655Z" fill="#750E6C"/>
</g>
<defs>
<clipPath id="clip0">
<rect width="32" height="32" fill="white" transform="translate(0 0.00390625)"/>
</clipPath>
</defs>
</svg>
