<svg width="28" height="28" viewBox="0 0 28 28" fill="none" xmlns="http://www.w3.org/2000/svg">
<g clip-path="url(#clip0)">
<path d="M12.542 12.2502C12.318 12.2502 12.094 12.1651 11.9237 11.9936L11.3404 11.4102C10.9985 11.0684 10.9985 10.5142 11.3404 10.1724C11.6822 9.83056 12.2364 9.83056 12.5782 10.1724L13.1615 10.7557C13.5034 11.0976 13.5034 11.6517 13.1615 11.9936C12.99 12.1651 12.766 12.2502 12.542 12.2502Z" fill="url(#paint0_linear)"/>
<path d="M15.458 11.0833C14.975 11.0833 14.583 10.6913 14.583 10.2083V9.625C14.583 9.142 14.975 8.75 15.458 8.75C15.941 8.75 16.333 9.142 16.333 9.625V10.2083C16.333 10.6913 15.941 11.0833 15.458 11.0833Z" fill="url(#paint1_linear)"/>
<path d="M11.3753 15.166H10.792C10.309 15.166 9.91699 14.774 9.91699 14.291C9.91699 13.808 10.309 13.416 10.792 13.416H11.3753C11.8583 13.416 12.2503 13.808 12.2503 14.291C12.2503 14.774 11.8583 15.166 11.3753 15.166Z" fill="url(#paint2_linear)"/>
<path d="M21.3963 3.26667L12.6463 0.07C12.3897 -0.0233333 12.1097 -0.0233333 11.853 0.07L3.10301 3.26667C2.63634 3.43 2.33301 3.87333 2.33301 4.36333V11.83C2.33301 18.9117 8.63301 22.4233 11.958 23.2983C12.0513 23.3217 12.1563 23.3333 12.2497 23.3333C12.343 23.3333 12.448 23.3217 12.5413 23.2983C12.6347 23.275 12.728 23.2517 12.833 23.205V20.7433C12.5997 20.8367 12.4013 20.9067 12.2497 20.9533C10.8263 20.4867 4.66634 18.1183 4.66634 11.83V5.18L12.2497 2.40333L19.833 5.18V11.83C19.833 12.5767 19.7513 13.265 19.5997 13.895L21.443 15.75C21.898 14.595 22.1663 13.2883 22.1663 11.83V4.36333C22.1663 3.87333 21.863 3.43 21.3963 3.26667Z" fill="url(#paint3_linear)"/>
<path d="M16.042 28.0001C15.9463 28.0001 15.8495 27.9849 15.7562 27.9523C15.4038 27.8298 15.167 27.4984 15.167 27.1251V14.8751C15.167 14.5216 15.3805 14.2019 15.7072 14.0666C16.035 13.9313 16.4107 14.0059 16.6603 14.2568L25.4103 23.0068C25.6728 23.2693 25.7405 23.6671 25.5807 24.0019C25.422 24.3379 25.0662 24.5316 24.6998 24.4954L19.6388 23.9623L16.7292 27.6653C16.5612 27.8811 16.3057 28.0001 16.042 28.0001Z" fill="url(#paint4_linear)"/>
</g>
<defs>
<linearGradient id="paint0_linear" x1="10.3301" y1="10.67" x2="11.8381" y2="13.004" gradientUnits="userSpaceOnUse">
<stop stop-color="#FF3B3B"/>
<stop offset="1" stop-color="#6600CC"/>
</linearGradient>
<linearGradient id="paint1_linear" x1="14.0177" y1="9.50369" x2="15.6531" y2="11.4022" gradientUnits="userSpaceOnUse">
<stop stop-color="#FF3B3B"/>
<stop offset="1" stop-color="#6600CC"/>
</linearGradient>
<linearGradient id="paint2_linear" x1="9.16331" y1="13.9813" x2="10.1366" y2="15.9901" gradientUnits="userSpaceOnUse">
<stop stop-color="#FF3B3B"/>
<stop offset="1" stop-color="#6600CC"/>
</linearGradient>
<linearGradient id="paint3_linear" x1="-4.07334" y1="7.53687" x2="11.8587" y2="28.4995" gradientUnits="userSpaceOnUse">
<stop stop-color="#FF3B3B"/>
<stop offset="1" stop-color="#6600CC"/>
</linearGradient>
<linearGradient id="paint4_linear" x1="11.7756" y1="18.5222" x2="21.5877" y2="29.9128" gradientUnits="userSpaceOnUse">
<stop stop-color="#FF3B3B"/>
<stop offset="1" stop-color="#6600CC"/>
</linearGradient>
<clipPath id="clip0">
<rect width="28" height="28" fill="white"/>
</clipPath>
</defs>
</svg>
