<svg width="28" height="28" viewBox="0 0 28 28" fill="none" xmlns="http://www.w3.org/2000/svg">
<path d="M9.625 7.98438C9.92685 7.98438 10.1719 7.73935 10.1719 7.4375C10.1719 7.13565 9.92685 6.89062 9.625 6.89062C9.32315 6.89062 9.07812 7.13565 9.07812 7.4375C9.07812 7.73935 9.32315 7.98438 9.625 7.98438Z" fill="black"/>
<path d="M9.625 11.2656C9.92685 11.2656 10.1719 11.0206 10.1719 10.7188C10.1719 10.4169 9.92685 10.1719 9.625 10.1719C9.32315 10.1719 9.07812 10.4169 9.07812 10.7188C9.07812 11.0206 9.32315 11.2656 9.625 11.2656Z" fill="black"/>
<path d="M8.53125 28H21.6562C23.7671 28 25.4844 26.2827 25.4844 24.1719C25.4844 23.8698 25.2396 23.625 24.9375 23.625H23.2969V2.73438C23.2969 1.22662 22.0703 0 20.5625 0C20.5625 0 4.8266 0 4.70312 0C3.49701 0 2.51562 0.981384 2.51562 2.1875V4.92188C2.51562 5.22394 2.76044 5.46875 3.0625 5.46875H5.79688V25.1486C5.79688 26.6347 6.92822 28 8.53125 28ZM21.6562 26.9062H10.7175C11.0614 26.4489 11.2656 25.8751 11.2656 25.2601V24.7132H24.3357C24.0817 25.9599 22.9767 26.9062 21.6562 26.9062ZM22.2031 2.73438V23.625H10.7188C10.4167 23.625 10.1719 23.8698 10.1719 24.1719V25.2656C10.1719 26.1703 9.43594 26.9062 8.53125 26.9062C7.55072 26.9062 6.89062 26.0577 6.89062 25.1486V2.1875C6.89062 1.79315 6.78552 1.41846 6.59818 1.09375H20.5625C21.4672 1.09375 22.2031 1.82968 22.2031 2.73438ZM3.60938 4.375V2.1875C3.60938 1.58444 4.10007 1.09375 4.70312 1.09375C5.30106 1.09375 5.79688 1.5759 5.79688 2.1875V4.375H3.60938Z" fill="black"/>
<path d="M14.5469 15.6406C14.5469 16.5874 14.9429 17.4628 15.6406 18.0845V21.6562C15.6406 21.8579 15.7517 22.0433 15.9294 22.1384C16.1072 22.2337 16.3232 22.2232 16.4908 22.1113L17.8281 21.2198L19.1654 22.1113C19.3335 22.2234 19.5493 22.2335 19.7268 22.1384C19.9045 22.0433 20.0156 21.8579 20.0156 21.6562V18.0845C20.7135 17.4626 21.1094 16.5872 21.1094 15.6406C21.1094 13.8315 19.6375 12.3594 17.8281 12.3594C16.0187 12.3594 14.5469 13.8312 14.5469 15.6406ZM18.1315 20.1075C17.9478 19.9851 17.7085 19.9851 17.5248 20.1075L16.7344 20.6345V18.7352C17.0819 18.858 17.45 18.9219 17.8281 18.9219C18.2062 18.9219 18.5743 18.858 18.9219 18.7352V20.6345L18.1315 20.1075ZM20.0156 15.6406C20.0156 16.8752 19.0103 17.8281 17.8281 17.8281C16.6455 17.8281 15.6406 16.8758 15.6406 15.6406C15.6406 14.4345 16.622 13.4531 17.8281 13.4531C19.0342 13.4531 20.0156 14.4345 20.0156 15.6406Z" fill="black"/>
<path d="M9.625 4.70312H19.4688C19.7708 4.70312 20.0156 4.45831 20.0156 4.15625C20.0156 3.85419 19.7708 3.60938 19.4688 3.60938H9.625C9.32294 3.60938 9.07812 3.85419 9.07812 4.15625C9.07812 4.45831 9.32294 4.70312 9.625 4.70312Z" fill="black"/>
<path d="M11.8125 7.98438H19.4688C19.7708 7.98438 20.0156 7.73956 20.0156 7.4375C20.0156 7.13544 19.7708 6.89062 19.4688 6.89062H11.8125C11.5104 6.89062 11.2656 7.13544 11.2656 7.4375C11.2656 7.73956 11.5104 7.98438 11.8125 7.98438Z" fill="black"/>
<path d="M11.8125 11.2656H19.4688C19.7708 11.2656 20.0156 11.0208 20.0156 10.7188C20.0156 10.4167 19.7708 10.1719 19.4688 10.1719H11.8125C11.5104 10.1719 11.2656 10.4167 11.2656 10.7188C11.2656 11.0208 11.5104 11.2656 11.8125 11.2656Z" fill="black"/>
<path d="M9.625 17.8281H12.9062C13.2083 17.8281 13.4531 17.5833 13.4531 17.2812C13.4531 16.9792 13.2083 16.7344 12.9062 16.7344H9.625C9.32294 16.7344 9.07812 16.9792 9.07812 17.2812C9.07812 17.5833 9.32294 17.8281 9.625 17.8281Z" fill="black"/>
<path d="M9.625 14.5469H12.9062C13.2083 14.5469 13.4531 14.3021 13.4531 14C13.4531 13.6979 13.2083 13.4531 12.9062 13.4531H9.625C9.32294 13.4531 9.07812 13.6979 9.07812 14C9.07812 14.3021 9.32294 14.5469 9.625 14.5469Z" fill="black"/>
<path d="M9.625 21.1094H12.9062C13.2083 21.1094 13.4531 20.8646 13.4531 20.5625C13.4531 20.2604 13.2083 20.0156 12.9062 20.0156H9.625C9.32294 20.0156 9.07812 20.2604 9.07812 20.5625C9.07812 20.8646 9.32294 21.1094 9.625 21.1094Z" fill="black"/>
</svg>
