<?xml version="1.0" encoding="utf-8"?>
<!-- Generator: Adobe Illustrator 23.1.1, SVG Export Plug-In . SVG Version: 6.00 Build 0)  -->
<svg version="1.1" id="Layer_1" xmlns="http://www.w3.org/2000/svg" xmlns:xlink="http://www.w3.org/1999/xlink" x="0px" y="0px"
	 viewBox="0 0 52 70.8" style="enable-background:new 0 0 52 70.8;" xml:space="preserve">
<style type="text/css">
	.st0{fill:none;}
	.st1{fill:#FFFFFF;}
</style>
<path class="st0" d="M48,3.7v61.7L27,53.1c-0.3-0.2-0.7-0.3-1-0.3s-0.7,0.1-1,0.3L4,65.4V3.7H48z"/>
<path class="st1" d="M50,0H2C0.9,0,0,0.9,0,2v66.8c0,0.7,0.4,1.4,1,1.7c0.6,0.4,1.4,0.4,2,0l23-13.4l23,13.4c0.6,0.4,1.4,0.4,2,0
	c0.6-0.3,1-1,1-1.7V2C52,0.9,51.1,0,50,0z M48,65.4L27,53.1c-0.3-0.2-0.7-0.3-1-0.3s-0.7,0.1-1,0.3L4,65.4V3.7h44V65.4z"/>
</svg>
