<svg id="Layer_1" data-name="Layer 1" xmlns="http://www.w3.org/2000/svg" viewBox="0 0 68.37 90"><defs><style>.cls-1{fill:#776eb2;}.cls-2{fill:#231f20;}.cls-3{fill:#f8ce74;}.cls-4{fill:#e82677;}</style></defs><title>Illus-hand-corner-2-full</title><path class="cls-1" d="M55.15,90H26.21c1-7.51,1.71-34.21,1.71-34.21-2.16,0-7,0-10.51-2.94-3.81-3.1-4-7.48-4.31-10.08s3.2-2.17,3.62-.81,1.77,6.21,7.25,6.58c7.45.51,9.09-5,8.84-8.63s-2.7-8.38-8.11-8.12c-7,.35-7.54,7.43-8.25,8.71-1.19.08-3.19.18-3.44-1.88a17.6,17.6,0,0,1,3.41-10.06c7.66-8.6,19.39-.81,21.54,3.2-.56-1.21-1.45-3.41-2.46-6C32.9,19,29.58,9.63,29.45,7.88a2.75,2.75,0,0,1,2.24-2.7c.82-.21,1.61-.08,1.87.45l.58,1.28c1.29,2.9,4.4,10,6.89,15.7l.49,1.11a46.4,46.4,0,0,1-2.06-14.4c0-.3,0-.57,0-.78a2.42,2.42,0,0,1,2.58-1.95c.65,0,1.2.25,1.31.69.06.24.19.89.38,1.82C44.54,12.81,46.12,21,46.9,25h0c.19.93.32,1.65.4,2-.93-7.35-.73-12.8-.08-13.47a3.45,3.45,0,0,1,1.16-.83,1.3,1.3,0,0,1,1.12,0,2.66,2.66,0,0,1,1.12,1.27c.09.45.17.91.24,1.37.49,3,.72,6.11,1.21,10.26.27,2.36.62,5.05,1.15,8.22C59,66.45,56.63,83.62,55.15,90Z"/><path class="cls-2" d="M55.66,35.06c-.49-5.1-.61-8.89-.72-12.23-.1-2.86-.18-5.34-.49-7.78a1.38,1.38,0,0,0-.1-.4,3.67,3.67,0,0,0-2.45-2.37,3.15,3.15,0,0,0-2.4.5,5.07,5.07,0,0,0-.86.63,1.06,1.06,0,0,0-.16.15c0-.28-.07-.55-.1-.82-.32-2.55-.58-4.54-.67-5a2.75,2.75,0,0,0-3-2h0a4.41,4.41,0,0,0-2.66.89A3.44,3.44,0,0,0,40.82,8.7a27.3,27.3,0,0,0-.29,3.64c-.38-1.09-.75-2.11-1.07-3C38.64,7,38.06,5.4,37.92,5.08,37.43,3.87,36,3.3,34.39,3.62a4.74,4.74,0,0,0-2.7,1.56,3.73,3.73,0,0,0-.88,2.42c0,2,2.58,11.24,4.69,18.15,0,.11.07.21.1.31A18.89,18.89,0,0,0,29,22.93a12.51,12.51,0,0,0-12.23,3.31l-.08.09a19,19,0,0,0-4.47,10.85A3.9,3.9,0,0,0,12.79,39a3.28,3.28,0,0,0-.73,2.28v.42c.08,2.76.2,7.37,4.05,11,3.07,2.88,7.15,3.66,9.73,3.94C25.55,62.2,24.4,82.46,23.2,90h3c1.38-9.31,2.63-33.55,2.68-34.65a1.48,1.48,0,0,0-1.37-1.55c-1.91-.15-6.4-.49-9.37-3.28s-3-6.29-3.11-8.87v-.44a.51.51,0,0,1,0-.24,1.13,1.13,0,0,1,.74.17c1.09,4.8,3.78,7.52,8,8.1,3.32.47,6-.18,8-1.91a10.1,10.1,0,0,0,3.11-7.55c0-5-3.08-10-9-10.14h-.25c-6.58,0-8.64,5.53-9.52,7.92a.58.58,0,0,0-.05.14c-.84-.1-.85-.35-.86-.67a16.3,16.3,0,0,1,3.7-8.7,9.52,9.52,0,0,1,9.4-2.52,16.71,16.71,0,0,1,6.4,3.31,11.31,11.31,0,0,1,3,3.48l.13.35.07.13,0,.06a1.59,1.59,0,0,0,.15.21l0,0a.86.86,0,0,0,.14.13l.07.06.15.1.07,0a.92.92,0,0,0,.23.09l.06,0,.2,0h.38l.15,0,.09,0,.05,0h0l.08-.05.14-.07.12-.09.11-.09.1-.1.09-.11a.54.54,0,0,0,.07-.13A.35.35,0,0,0,40.6,33a.5.5,0,0,0,0-.13c0-.05,0-.09.05-.13a.78.78,0,0,0,0-.14.77.77,0,0,0,0-.15v-.14s0-.1,0-.15a1,1,0,0,0,0-.15s0-.06,0-.09-.1-.27-.16-.41C38.76,27,33.78,9.66,33.78,7.6a.82.82,0,0,1,.36-.69l.09-.07a1.86,1.86,0,0,1,1.06-.34c.62,1.68,3.32,9.28,5.74,16.11l.89,2.49a24.48,24.48,0,0,0,1.45,4.1c.34,1,.65,1.85.92,2.6a1.48,1.48,0,1,0,2.8-1c-.12-.33-1.08-3.06-2.35-6.63a43.38,43.38,0,0,1-1-15,.36.36,0,0,1,0-.11.58.58,0,0,1,.3-.27,1.51,1.51,0,0,1,.78-.15c.3,2.14,1.3,10.2,2,16.32h0c.14,1.12.27,2.16.38,3.1s.12,2,.21,2.95a1.48,1.48,0,0,0,2.95-.25c-.06-.81-.12-1.59-.17-2.34a1.93,1.93,0,0,0,0-.34s0-.15,0-.3c-.38-6.88.15-11.36.51-12.31l.11-.09a1.37,1.37,0,0,1,.39-.22,1.59,1.59,0,0,1,.29.44c.26,2.24.34,4.59.43,7.29,0,.86.06,1.77.1,2.75.11,2.69.28,5.86.64,9.68C56.53,71.27,54,86.23,53.15,90H56.2C57.27,85,59.34,69.62,55.66,35.06ZM25.85,32.61c4.8.1,6.07,4.73,6.07,7.17,0,.82-.16,3.63-2.1,5.31-1.31,1.15-3.21,1.55-5.63,1.21-3.87-.53-5-3.59-5.52-5.84l0-.09a2.37,2.37,0,0,0-.21-.6,11.78,11.78,0,0,0,.48-1.18c1.08-2.9,2.58-6,6.74-6Z"/><rect class="cls-3" x="36.57" y="67.7" width="3.78" height="3.78" transform="translate(-25.87 22.86) rotate(-25.07)"/><circle class="cls-4" cx="7.52" cy="5.29" r="2.59"/></svg>