<svg width="49" height="48" viewBox="0 0 49 48" fill="none" xmlns="http://www.w3.org/2000/svg">
<rect x="0.125" width="48" height="48" fill="#D1A32C"/>
<path d="M30.1644 23.4127L19.5762 16.3539C19.4699 16.283 19.3463 16.2423 19.2186 16.2361C19.091 16.2299 18.9641 16.2584 18.8514 16.3187C18.7387 16.379 18.6445 16.4688 18.5788 16.5784C18.5132 16.688 18.4785 16.8134 18.4785 16.9412V31.0589C18.4785 31.1867 18.5132 31.3121 18.5788 31.4217C18.6445 31.5313 18.7387 31.6211 18.8514 31.6814C18.9641 31.7417 19.091 31.7702 19.2186 31.764C19.3463 31.7578 19.4699 31.7171 19.5762 31.6462L30.1644 24.5873C30.2609 24.5228 30.34 24.4354 30.3948 24.333C30.4495 24.2305 30.4781 24.1162 30.4781 24C30.4781 23.8839 30.4495 23.7696 30.3948 23.6671C30.34 23.5647 30.2609 23.4773 30.1644 23.4127Z" fill="white"/>
</svg>
